<?xml version="1.0" encoding="UTF-8"?>
<svg xmlns="http://www.w3.org/2000/svg" xmlns:xlink="http://www.w3.org/1999/xlink" width="150pt" height="112pt" viewBox="0 0 150 112" version="1.1">
<defs>
<clipPath id="clip1">
  <path d="M 15 76 L 135 76 L 135 79 L 15 79 Z M 15 76 "/>
</clipPath>
<clipPath id="clip2">
  <path d="M 132.550781 78.769531 L 17.375 78.769531 L 15.25 76.757812 L 134.675781 76.757812 L 132.550781 78.769531 "/>
</clipPath>
</defs>
<g id="surface1">
<path style=" stroke:none;fill-rule:nonzero;fill:rgb(90.588235%,90.980392%,89.803922%);fill-opacity:1;" d="M 93.464844 72.792969 L 98.84375 72.792969 L 98.84375 54.503906 L 93.464844 54.503906 Z M 93.464844 72.792969 "/>
<path style=" stroke:none;fill-rule:nonzero;fill:rgb(85.490196%,85.882353%,84.705882%);fill-opacity:1;" d="M 113.421875 72.792969 L 95.574219 72.792969 L 92.878906 51.386719 L 110.726562 51.386719 L 113.421875 72.792969 "/>
<path style=" stroke:none;fill-rule:nonzero;fill:rgb(92.941176%,92.941176%,92.156863%);fill-opacity:1;" d="M 114.46875 72.792969 L 96.035156 72.792969 L 93.339844 51.386719 L 111.773438 51.386719 L 114.46875 72.792969 "/>
<path style=" stroke:none;fill-rule:nonzero;fill:rgb(98.039216%,98.039216%,97.647059%);fill-opacity:1;" d="M 104.128906 72.792969 L 100.550781 72.792969 L 101.558594 51.386719 L 105.136719 51.386719 L 104.128906 72.792969 "/>
<path style=" stroke:none;fill-rule:nonzero;fill:rgb(98.039216%,98.039216%,97.647059%);fill-opacity:1;" d="M 108.226562 72.792969 L 104.707031 72.792969 L 105.714844 51.386719 L 109.234375 51.386719 L 108.226562 72.792969 "/>
<path style=" stroke:none;fill-rule:nonzero;fill:rgb(92.941176%,92.941176%,92.156863%);fill-opacity:1;" d="M 30.988281 68.160156 L 63.601562 68.160156 L 63.601562 52.683594 L 30.988281 52.683594 Z M 30.988281 68.160156 "/>
<path style=" stroke:none;fill-rule:nonzero;fill:rgb(95.294118%,94.901961%,94.509804%);fill-opacity:1;" d="M 55.585938 53.910156 L 39.007812 53.910156 C 38.292969 53.910156 37.710938 53.328125 37.710938 52.613281 C 37.710938 51.898438 38.292969 51.316406 39.007812 51.316406 L 55.585938 51.316406 C 56.296875 51.316406 56.878906 51.898438 56.878906 52.613281 C 56.878906 53.328125 56.296875 53.910156 55.585938 53.910156 "/>
<path style=" stroke:none;fill-rule:nonzero;fill:rgb(95.294118%,94.901961%,94.509804%);fill-opacity:1;" d="M 55.585938 72.835938 L 39.007812 72.835938 C 38.292969 72.835938 37.710938 72.253906 37.710938 71.539062 C 37.710938 70.824219 38.292969 70.242188 39.007812 70.242188 L 55.585938 70.242188 C 56.296875 70.242188 56.878906 70.824219 56.878906 71.539062 C 56.878906 72.253906 56.296875 72.835938 55.585938 72.835938 "/>
<path style=" stroke:none;fill-rule:nonzero;fill:rgb(95.294118%,94.901961%,94.509804%);fill-opacity:1;" d="M 133.101562 108.554688 C 133.101562 110.433594 107.070312 111.957031 74.960938 111.957031 C 42.855469 111.957031 16.824219 110.433594 16.824219 108.554688 C 16.824219 106.675781 42.855469 105.152344 74.960938 105.152344 C 107.070312 105.152344 133.101562 106.675781 133.101562 108.554688 "/>
<path style=" stroke:none;fill-rule:nonzero;fill:rgb(25.098039%,43.529412%,74.901961%);fill-opacity:1;" d="M 132.550781 78.769531 L 17.375 78.769531 L 15.25 76.757812 L 134.675781 76.757812 L 132.550781 78.769531 "/>
<g clip-path="url(#clip1)" clip-rule="nonzero">
<g clip-path="url(#clip2)" clip-rule="nonzero">
<path style=" stroke:none;fill-rule:nonzero;fill:rgb(56.470588%,70.588235%,89.019608%);fill-opacity:1;" d="M 15.25 78.769531 L 134.675781 78.769531 L 134.675781 76.757812 L 15.25 76.757812 Z M 15.25 78.769531 "/>
</g>
</g>
<path style=" stroke:none;fill-rule:nonzero;fill:rgb(25.098039%,43.529412%,74.901961%);fill-opacity:1;" d="M 122.675781 79.855469 L 27.25 79.855469 L 25.488281 78.769531 L 124.4375 78.769531 L 122.675781 79.855469 "/>
<path style=" stroke:none;fill-rule:nonzero;fill:rgb(14.509804%,27.058824%,51.372549%);fill-opacity:1;" d="M 122.675781 79.855469 L 27.25 79.855469 L 25.488281 78.769531 L 124.4375 78.769531 L 124.402344 78.792969 L 122.675781 79.855469 "/>
<path style=" stroke:none;fill-rule:nonzero;fill:rgb(25.098039%,43.529412%,74.901961%);fill-opacity:1;" d="M 26.492188 108.554688 L 25.125 108.554688 L 29.375 79.855469 L 32.429688 79.855469 L 26.492188 108.554688 "/>
<path style=" stroke:none;fill-rule:nonzero;fill:rgb(14.509804%,27.058824%,51.372549%);fill-opacity:1;" d="M 26.492188 108.554688 L 25.125 108.554688 L 29.375 79.855469 L 32.429688 79.855469 L 30.988281 86.816406 L 29.304688 94.957031 L 28.597656 98.386719 L 28.582031 98.460938 L 27.429688 104.039062 L 27.414062 104.113281 L 26.492188 108.554688 "/>
<path style=" stroke:none;fill-rule:nonzero;fill:rgb(25.098039%,43.529412%,74.901961%);fill-opacity:1;" d="M 33.914062 108.554688 L 32.542969 108.554688 L 36.792969 79.855469 L 39.847656 79.855469 L 33.914062 108.554688 "/>
<path style=" stroke:none;fill-rule:nonzero;fill:rgb(14.509804%,27.058824%,51.372549%);fill-opacity:1;" d="M 33.914062 108.554688 L 32.542969 108.554688 L 36.792969 79.855469 L 39.847656 79.855469 L 38.355469 87.085938 L 37.6875 90.308594 L 37.199219 92.664062 L 36.726562 94.957031 L 36.015625 98.386719 L 36 98.460938 L 33.914062 108.554688 "/>
<path style=" stroke:none;fill-rule:nonzero;fill:rgb(25.098039%,43.529412%,74.901961%);fill-opacity:1;" d="M 123.429688 108.554688 L 124.800781 108.554688 L 120.550781 79.855469 L 117.496094 79.855469 L 123.429688 108.554688 "/>
<path style=" stroke:none;fill-rule:nonzero;fill:rgb(14.509804%,27.058824%,51.372549%);fill-opacity:1;" d="M 124.800781 108.554688 L 123.429688 108.554688 L 119.710938 90.570312 L 117.980469 82.191406 L 117.496094 79.855469 L 120.550781 79.855469 L 124.800781 108.554688 "/>
<path style=" stroke:none;fill-rule:nonzero;fill:rgb(25.098039%,43.529412%,74.901961%);fill-opacity:1;" d="M 116.011719 108.554688 L 117.378906 108.554688 L 113.128906 79.855469 L 110.074219 79.855469 L 116.011719 108.554688 "/>
<path style=" stroke:none;fill-rule:nonzero;fill:rgb(14.509804%,27.058824%,51.372549%);fill-opacity:1;" d="M 117.378906 108.554688 L 116.011719 108.554688 L 110.074219 79.855469 L 113.128906 79.855469 L 117.378906 108.554688 "/>
<path style=" stroke:none;fill-rule:nonzero;fill:rgb(25.098039%,43.529412%,74.901961%);fill-opacity:1;" d="M 61.027344 24.207031 C 60.757812 28.257812 63.816406 31.765625 67.867188 32.039062 C 71.910156 32.308594 75.410156 29.238281 75.679688 25.1875 C 75.949219 21.132812 72.886719 17.625 68.84375 17.355469 C 64.792969 17.082031 61.300781 20.152344 61.027344 24.207031 Z M 67.25 12.078125 L 71.121094 12.335938 C 71.429688 12.355469 71.699219 12.542969 71.824219 12.824219 L 72.230469 13.734375 C 72.320312 13.929688 72.480469 14.078125 72.675781 14.160156 C 73.167969 14.363281 73.636719 14.597656 74.085938 14.859375 C 74.273438 14.96875 74.488281 15.003906 74.695312 14.957031 L 75.664062 14.730469 C 75.964844 14.660156 76.277344 14.757812 76.480469 14.992188 L 79.035156 17.917969 C 79.234375 18.148438 79.292969 18.472656 79.183594 18.757812 L 78.832031 19.691406 C 78.753906 19.890625 78.761719 20.113281 78.84375 20.308594 C 79.046875 20.792969 79.214844 21.292969 79.351562 21.804688 C 79.402344 22.011719 79.53125 22.191406 79.710938 22.304688 L 80.558594 22.828125 C 80.816406 22.992188 80.96875 23.285156 80.949219 23.589844 L 80.6875 27.46875 C 80.667969 27.777344 80.480469 28.046875 80.203125 28.171875 L 79.292969 28.582031 C 79.097656 28.667969 78.949219 28.828125 78.867188 29.027344 C 78.667969 29.519531 78.433594 29.988281 78.171875 30.441406 C 78.0625 30.625 78.023438 30.84375 78.074219 31.050781 L 78.300781 32.023438 C 78.371094 32.320312 78.269531 32.636719 78.039062 32.835938 L 75.117188 35.398438 C 74.886719 35.601562 74.566406 35.660156 74.277344 35.550781 L 73.347656 35.195312 C 73.148438 35.117188 72.929688 35.125 72.730469 35.207031 C 72.25 35.410156 71.753906 35.578125 71.242188 35.714844 C 71.035156 35.769531 70.855469 35.894531 70.742188 36.078125 L 70.21875 36.925781 C 70.054688 37.1875 69.765625 37.335938 69.457031 37.316406 L 65.585938 37.058594 C 65.28125 37.035156 65.011719 36.847656 64.886719 36.566406 L 64.476562 35.65625 C 64.390625 35.460938 64.226562 35.3125 64.03125 35.230469 C 63.542969 35.03125 63.070312 34.796875 62.621094 34.53125 C 62.4375 34.425781 62.21875 34.386719 62.011719 34.4375 L 61.042969 34.664062 C 60.746094 34.734375 60.429688 34.632812 60.230469 34.402344 L 57.675781 31.476562 C 57.472656 31.242188 57.414062 30.917969 57.523438 30.632812 L 57.878906 29.703125 C 57.953125 29.5 57.945312 29.28125 57.863281 29.082031 C 57.660156 28.601562 57.492188 28.101562 57.359375 27.589844 C 57.304688 27.382812 57.175781 27.203125 56.996094 27.089844 L 56.152344 26.5625 C 55.890625 26.402344 55.742188 26.109375 55.761719 25.800781 L 56.019531 21.921875 C 56.039062 21.617188 56.226562 21.34375 56.507812 21.21875 L 57.414062 20.8125 C 57.609375 20.722656 57.757812 20.5625 57.839844 20.363281 C 58.039062 19.875 58.273438 19.402344 58.539062 18.949219 C 58.644531 18.765625 58.683594 18.546875 58.632812 18.339844 L 58.40625 17.371094 C 58.335938 17.070312 58.4375 16.757812 58.667969 16.554688 L 61.589844 13.996094 C 61.820312 13.792969 62.144531 13.734375 62.429688 13.84375 L 63.359375 14.199219 C 63.558594 14.273438 63.78125 14.265625 63.976562 14.183594 C 64.457031 13.980469 64.957031 13.8125 65.46875 13.679688 C 65.671875 13.625 65.855469 13.496094 65.964844 13.316406 L 66.492188 12.46875 C 66.652344 12.207031 66.945312 12.054688 67.25 12.078125 "/>
<path style=" stroke:none;fill-rule:nonzero;fill:rgb(25.098039%,43.529412%,74.901961%);fill-opacity:1;" d="M 83.386719 33.335938 C 83.652344 34.125 84.503906 34.546875 85.292969 34.28125 C 86.078125 34.011719 86.5 33.160156 86.234375 32.371094 C 85.96875 31.582031 85.117188 31.160156 84.328125 31.425781 C 83.542969 31.695312 83.121094 32.546875 83.386719 33.335938 M 82.59375 28.476562 L 83.921875 28.023438 C 84.066406 27.976562 84.222656 28.011719 84.332031 28.113281 L 84.554688 28.324219 C 84.628906 28.394531 84.726562 28.429688 84.832031 28.433594 C 85.015625 28.433594 85.199219 28.445312 85.378906 28.46875 C 85.480469 28.480469 85.582031 28.457031 85.667969 28.398438 L 85.914062 28.21875 C 86.035156 28.132812 86.195312 28.121094 86.332031 28.1875 L 87.589844 28.808594 C 87.726562 28.875 87.8125 29.011719 87.816406 29.164062 L 87.824219 29.46875 C 87.828125 29.570312 87.871094 29.667969 87.945312 29.742188 C 88.074219 29.871094 88.195312 30.007812 88.304688 30.152344 C 88.367188 30.234375 88.460938 30.292969 88.5625 30.308594 L 88.859375 30.359375 C 89.007812 30.382812 89.132812 30.488281 89.179688 30.628906 L 89.628906 31.964844 C 89.675781 32.105469 89.644531 32.265625 89.539062 32.375 L 89.332031 32.59375 C 89.261719 32.671875 89.222656 32.769531 89.222656 32.875 C 89.222656 33.058594 89.210938 33.242188 89.1875 33.421875 C 89.171875 33.523438 89.195312 33.628906 89.257812 33.710938 L 89.433594 33.960938 C 89.523438 34.082031 89.535156 34.242188 89.46875 34.378906 L 88.847656 35.640625 C 88.78125 35.773438 88.644531 35.859375 88.492188 35.867188 L 88.191406 35.875 C 88.085938 35.878906 87.988281 35.921875 87.917969 35.996094 C 87.789062 36.121094 87.648438 36.242188 87.503906 36.355469 C 87.421875 36.417969 87.367188 36.507812 87.347656 36.609375 L 87.300781 36.910156 C 87.277344 37.058594 87.171875 37.183594 87.03125 37.230469 L 85.699219 37.683594 C 85.554688 37.730469 85.398438 37.695312 85.289062 37.59375 L 85.070312 37.382812 C 84.992188 37.3125 84.894531 37.277344 84.789062 37.273438 C 84.605469 37.273438 84.425781 37.261719 84.246094 37.238281 C 84.140625 37.226562 84.039062 37.25 83.953125 37.308594 L 83.707031 37.488281 C 83.585938 37.574219 83.425781 37.585938 83.289062 37.519531 L 82.03125 36.898438 C 81.898438 36.828125 81.808594 36.695312 81.804688 36.542969 L 81.796875 36.238281 C 81.792969 36.136719 81.75 36.039062 81.675781 35.964844 C 81.546875 35.835938 81.429688 35.699219 81.316406 35.554688 C 81.253906 35.472656 81.164062 35.414062 81.058594 35.398438 L 80.761719 35.347656 C 80.613281 35.324219 80.492188 35.21875 80.441406 35.078125 L 79.992188 33.742188 C 79.945312 33.601562 79.980469 33.441406 80.082031 33.332031 L 80.289062 33.113281 C 80.359375 33.035156 80.398438 32.9375 80.398438 32.832031 C 80.398438 32.648438 80.410156 32.464844 80.433594 32.285156 C 80.449219 32.183594 80.425781 32.078125 80.363281 31.996094 L 80.1875 31.75 C 80.101562 31.625 80.085938 31.464844 80.152344 31.328125 L 80.777344 30.070312 C 80.84375 29.933594 80.976562 29.847656 81.128906 29.839844 L 81.433594 29.832031 C 81.535156 29.828125 81.632812 29.785156 81.707031 29.710938 C 81.835938 29.585938 81.972656 29.464844 82.117188 29.351562 C 82.199219 29.289062 82.257812 29.199219 82.273438 29.09375 L 82.320312 28.796875 C 82.347656 28.648438 82.449219 28.523438 82.59375 28.476562 "/>
<path style=" stroke:none;fill-rule:nonzero;fill:rgb(56.470588%,70.588235%,89.019608%);fill-opacity:1;" d="M 85.570312 37.703125 C 85.53125 37.703125 85.492188 37.699219 85.453125 37.6875 C 85.394531 37.667969 85.335938 37.636719 85.289062 37.59375 L 85.070312 37.382812 C 84.992188 37.3125 84.894531 37.277344 84.789062 37.273438 C 84.605469 37.273438 84.425781 37.261719 84.246094 37.238281 C 84.226562 37.234375 84.207031 37.234375 84.1875 37.234375 C 84.105469 37.234375 84.023438 37.257812 83.953125 37.308594 L 83.707031 37.488281 C 83.648438 37.53125 83.578125 37.554688 83.503906 37.5625 C 83.492188 37.5625 83.480469 37.5625 83.472656 37.5625 C 83.410156 37.5625 83.347656 37.550781 83.289062 37.519531 L 82.03125 36.898438 C 81.898438 36.828125 81.808594 36.695312 81.804688 36.542969 L 81.796875 36.238281 C 81.792969 36.136719 81.75 36.039062 81.675781 35.964844 C 81.546875 35.835938 81.429688 35.699219 81.316406 35.554688 C 81.253906 35.472656 81.164062 35.414062 81.058594 35.398438 L 80.761719 35.347656 C 80.613281 35.324219 80.492188 35.21875 80.441406 35.078125 L 79.992188 33.742188 C 79.976562 33.699219 79.972656 33.65625 79.972656 33.613281 C 79.972656 33.511719 80.007812 33.410156 80.082031 33.332031 L 80.289062 33.113281 C 80.359375 33.035156 80.398438 32.9375 80.398438 32.832031 C 80.398438 32.648438 80.410156 32.464844 80.433594 32.285156 C 80.4375 32.265625 80.4375 32.25 80.4375 32.230469 C 80.4375 32.144531 80.414062 32.0625 80.363281 31.996094 L 80.1875 31.75 C 80.136719 31.675781 80.109375 31.59375 80.109375 31.507812 C 80.109375 31.449219 80.125 31.386719 80.152344 31.328125 L 80.777344 30.070312 C 80.84375 29.933594 80.976562 29.847656 81.128906 29.839844 L 81.433594 29.832031 C 81.535156 29.828125 81.632812 29.785156 81.707031 29.710938 C 81.835938 29.585938 81.972656 29.464844 82.117188 29.351562 C 82.199219 29.289062 82.257812 29.199219 82.273438 29.09375 L 82.320312 28.796875 C 82.347656 28.648438 82.449219 28.523438 82.59375 28.476562 L 83.921875 28.023438 C 83.964844 28.011719 84.007812 28.003906 84.054688 28.003906 C 84.15625 28.003906 84.253906 28.042969 84.332031 28.113281 L 84.554688 28.324219 C 84.628906 28.394531 84.726562 28.429688 84.832031 28.433594 C 85.015625 28.433594 85.199219 28.445312 85.378906 28.46875 C 85.394531 28.46875 85.414062 28.472656 85.433594 28.472656 C 85.515625 28.472656 85.597656 28.445312 85.667969 28.398438 L 85.914062 28.21875 C 85.984375 28.167969 86.066406 28.144531 86.152344 28.144531 C 86.214844 28.144531 86.273438 28.15625 86.332031 28.1875 L 87.589844 28.808594 C 87.726562 28.875 87.8125 29.011719 87.816406 29.164062 L 87.824219 29.46875 C 87.828125 29.570312 87.871094 29.667969 87.945312 29.742188 C 88.074219 29.871094 88.195312 30.007812 88.304688 30.152344 C 88.367188 30.234375 88.460938 30.292969 88.5625 30.308594 L 88.859375 30.359375 C 89.007812 30.382812 89.132812 30.488281 89.179688 30.628906 L 89.628906 31.964844 C 89.644531 32.007812 89.652344 32.050781 89.652344 32.09375 C 89.652344 32.195312 89.613281 32.296875 89.539062 32.375 L 89.332031 32.59375 C 89.261719 32.671875 89.222656 32.769531 89.222656 32.875 C 89.222656 33.058594 89.210938 33.242188 89.1875 33.421875 C 89.183594 33.4375 89.183594 33.457031 89.183594 33.476562 C 89.183594 33.5625 89.207031 33.644531 89.257812 33.710938 L 89.433594 33.960938 C 89.484375 34.03125 89.511719 34.113281 89.511719 34.199219 C 89.511719 34.257812 89.496094 34.320312 89.46875 34.378906 L 88.847656 35.640625 C 88.78125 35.773438 88.644531 35.859375 88.492188 35.867188 L 88.191406 35.875 C 88.148438 35.875 88.105469 35.882812 88.066406 35.898438 C 88.011719 35.917969 87.960938 35.953125 87.917969 35.996094 C 87.789062 36.121094 87.648438 36.242188 87.503906 36.355469 C 87.421875 36.417969 87.367188 36.507812 87.347656 36.609375 L 87.300781 36.910156 C 87.277344 37.058594 87.171875 37.183594 87.03125 37.230469 L 85.699219 37.683594 C 85.65625 37.695312 85.613281 37.703125 85.570312 37.703125 M 83.308594 32.851562 C 83.308594 33.011719 83.332031 33.175781 83.386719 33.335938 C 83.597656 33.964844 84.183594 34.359375 84.8125 34.359375 C 84.96875 34.359375 85.132812 34.335938 85.292969 34.28125 C 85.917969 34.066406 86.3125 33.480469 86.3125 32.855469 C 86.3125 32.695312 86.289062 32.53125 86.234375 32.371094 C 86.097656 31.96875 85.808594 31.660156 85.453125 31.492188 C 85.253906 31.398438 85.035156 31.347656 84.8125 31.347656 C 84.730469 31.347656 84.644531 31.355469 84.5625 31.367188 C 84.484375 31.382812 84.40625 31.402344 84.328125 31.425781 C 83.964844 31.550781 83.679688 31.800781 83.503906 32.109375 C 83.378906 32.332031 83.308594 32.589844 83.308594 32.851562 "/>
<path style=" stroke:none;fill-rule:nonzero;fill:rgb(25.098039%,43.529412%,74.901961%);fill-opacity:1;" d="M 74.933594 42.902344 L 76.582031 40.039062 C 76.851562 39.570312 76.515625 38.980469 75.972656 38.980469 L 72.671875 38.980469 C 72.132812 38.980469 71.792969 39.570312 72.066406 40.039062 L 73.714844 42.902344 C 73.984375 43.371094 74.660156 43.371094 74.933594 42.902344 "/>
<path style=" stroke:none;fill-rule:nonzero;fill:rgb(25.098039%,43.529412%,74.901961%);fill-opacity:1;" d="M 20.898438 75.558594 L 61.316406 75.558594 C 61.90625 75.558594 62.371094 75.078125 62.351562 74.488281 L 61.394531 45.53125 C 61.375 44.941406 60.878906 44.457031 60.289062 44.457031 L 19.871094 44.457031 C 19.28125 44.457031 18.816406 44.941406 18.835938 45.53125 L 19.792969 74.488281 C 19.8125 75.078125 20.308594 75.558594 20.898438 75.558594 "/>
<path style=" stroke:none;fill-rule:nonzero;fill:rgb(25.098039%,43.529412%,74.901961%);fill-opacity:1;" d="M 21.226562 75.558594 L 61.648438 75.558594 C 62.238281 75.558594 62.703125 75.078125 62.683594 74.488281 L 61.726562 45.53125 C 61.707031 44.941406 61.210938 44.457031 60.621094 44.457031 L 20.199219 44.457031 C 19.613281 44.457031 19.144531 44.941406 19.164062 45.53125 L 20.121094 74.488281 C 20.140625 75.078125 20.640625 75.558594 21.226562 75.558594 "/>
<path style=" stroke:none;fill-rule:nonzero;fill:rgb(14.901961%,32.54902%,58.823529%);fill-opacity:1;" d="M 21.382812 75.558594 L 21.226562 75.558594 C 20.640625 75.558594 20.140625 75.078125 20.121094 74.488281 L 19.164062 45.53125 C 19.164062 45.519531 19.164062 45.507812 19.164062 45.496094 C 19.164062 44.921875 19.625 44.457031 20.199219 44.457031 L 32.347656 44.457031 C 32.085938 45.023438 31.839844 45.601562 31.617188 46.160156 L 20.535156 46.160156 C 20.304688 46.160156 20.125 46.347656 20.132812 46.578125 L 21.019531 73.441406 C 21.027344 73.667969 21.21875 73.859375 21.449219 73.859375 L 61.3125 73.859375 C 61.542969 73.859375 61.722656 73.667969 61.714844 73.441406 L 61.21875 58.359375 C 61.410156 58.441406 61.597656 58.511719 61.789062 58.582031 C 61.914062 58.625 62.039062 58.664062 62.160156 58.699219 L 62.683594 74.488281 C 62.683594 74.5 62.683594 74.511719 62.683594 74.523438 C 62.683594 74.980469 62.390625 75.371094 61.976562 75.507812 L 21.75 75.507812 C 21.621094 75.507812 21.5 75.523438 21.382812 75.558594 M 62.015625 54.320312 C 61.691406 54.042969 61.371094 53.734375 61.054688 53.414062 L 60.828125 46.578125 C 60.820312 46.347656 60.628906 46.160156 60.398438 46.160156 L 56.796875 46.160156 C 56.457031 45.632812 56.070312 45.054688 55.65625 44.457031 L 60.621094 44.457031 C 61.210938 44.457031 61.707031 44.941406 61.726562 45.53125 L 62.015625 54.320312 "/>
<path style=" stroke:none;fill-rule:nonzero;fill:rgb(25.098039%,43.529412%,74.901961%);fill-opacity:1;" d="M 21.75 75.507812 L 70.566406 75.507812 C 71.074219 75.507812 71.515625 75.804688 71.71875 76.230469 C 71.835938 76.472656 71.65625 76.757812 71.382812 76.757812 L 20.933594 76.757812 C 20.65625 76.757812 20.476562 76.472656 20.59375 76.230469 C 20.796875 75.804688 21.238281 75.507812 21.75 75.507812 "/>
<path style=" stroke:none;fill-rule:nonzero;fill:rgb(14.901961%,32.54902%,58.823529%);fill-opacity:1;" d="M 71.382812 76.757812 L 57.867188 76.757812 C 57.867188 76.503906 57.664062 76.300781 57.414062 76.300781 L 47.28125 76.300781 C 47.03125 76.300781 46.824219 76.503906 46.824219 76.757812 L 30.792969 76.757812 C 30.519531 76.757812 30.339844 76.472656 30.457031 76.230469 C 30.660156 75.804688 31.101562 75.507812 31.609375 75.507812 L 70.566406 75.507812 C 71.074219 75.507812 71.515625 75.804688 71.71875 76.230469 C 71.742188 76.28125 71.753906 76.332031 71.753906 76.386719 C 71.757812 76.527344 71.671875 76.660156 71.539062 76.722656 C 71.492188 76.742188 71.4375 76.757812 71.382812 76.757812 "/>
<path style=" stroke:none;fill-rule:nonzero;fill:rgb(37.647059%,50.196078%,69.019608%);fill-opacity:1;" d="M 57.867188 76.757812 L 46.824219 76.757812 C 46.824219 76.503906 47.03125 76.300781 47.28125 76.300781 L 57.414062 76.300781 C 57.664062 76.300781 57.867188 76.503906 57.867188 76.757812 "/>
<path style=" stroke:none;fill-rule:nonzero;fill:rgb(89.411765%,91.764706%,94.117647%);fill-opacity:1;" d="M 61.3125 73.859375 L 52.582031 73.859375 L 56.917969 54.90625 C 57.03125 55.027344 57.144531 55.144531 57.261719 55.261719 C 58.0625 56.082031 58.917969 56.875 59.925781 57.605469 L 60.316406 57.875 C 60.484375 57.976562 60.65625 58.089844 60.820312 58.167969 C 60.957031 58.238281 61.085938 58.300781 61.21875 58.359375 L 61.714844 73.441406 C 61.722656 73.667969 61.542969 73.859375 61.3125 73.859375 M 50.605469 73.859375 L 32.367188 73.859375 L 34.804688 63.195312 C 35.195312 63.644531 35.601562 64.085938 36.03125 64.519531 L 37.363281 63.476562 C 37.355469 64.019531 37.359375 64.441406 37.382812 64.726562 C 39.578125 64.726562 47.855469 64.726562 52.371094 64.726562 C 53.179688 59.800781 53.386719 55.582031 53.289062 52.113281 L 53.523438 52.359375 L 54.234375 51.773438 C 54.597656 52.234375 54.964844 52.6875 55.34375 53.140625 L 50.605469 73.859375 M 30.386719 73.859375 L 28.863281 73.859375 L 32.117188 59.640625 C 32.175781 59.734375 32.238281 59.832031 32.296875 59.925781 C 32.609375 60.390625 32.929688 60.847656 33.261719 61.289062 L 30.386719 73.859375 M 23.367188 73.859375 L 21.449219 73.859375 C 21.21875 73.859375 21.027344 73.667969 21.019531 73.441406 L 20.132812 46.578125 C 20.125 46.347656 20.304688 46.160156 20.535156 46.160156 L 31.617188 46.160156 L 29.703125 46.160156 L 23.367188 73.859375 M 37.375 62.660156 C 36.78125 61.609375 36.191406 60.542969 35.652344 59.476562 L 37.300781 52.28125 C 37.332031 52.867188 37.355469 53.441406 37.378906 54 C 37.378906 54 37.378906 54 37.378906 53.996094 C 37.507812 57.601562 37.414062 60.660156 37.375 62.660156 M 34.347656 56.546875 C 34.273438 56.339844 34.203125 56.136719 34.140625 55.933594 C 34.023438 55.554688 33.945312 55.179688 33.917969 54.882812 C 33.90625 54.734375 33.90625 54.609375 33.917969 54.53125 C 33.925781 54.496094 33.933594 54.464844 33.941406 54.460938 L 33.945312 54.445312 L 33.96875 54.367188 L 34.015625 54.214844 L 34.195312 53.601562 L 34.40625 52.984375 C 34.46875 52.789062 34.539062 52.597656 34.613281 52.402344 L 35.21875 52.734375 L 34.347656 56.546875 M 61.054688 53.414062 C 60.765625 53.117188 60.480469 52.8125 60.199219 52.5 C 59.464844 51.667969 58.757812 50.789062 58.066406 49.878906 L 58.917969 46.160156 L 56.941406 46.160156 L 56.902344 46.324219 C 56.867188 46.269531 56.832031 46.214844 56.796875 46.160156 L 60.398438 46.160156 C 60.628906 46.160156 60.820312 46.347656 60.828125 46.578125 L 61.054688 53.414062 "/>
<path style=" stroke:none;fill-rule:nonzero;fill:rgb(100%,100%,100%);fill-opacity:1;" d="M 28.863281 73.859375 L 23.367188 73.859375 L 29.703125 46.160156 L 35.199219 46.160156 L 28.863281 73.859375 "/>
<path style=" stroke:none;fill-rule:nonzero;fill:rgb(100%,100%,100%);fill-opacity:1;" d="M 32.363281 73.859375 L 30.386719 73.859375 L 36.722656 46.160156 L 38.699219 46.160156 L 32.363281 73.859375 "/>
<path style=" stroke:none;fill-rule:nonzero;fill:rgb(100%,100%,100%);fill-opacity:1;" d="M 52.582031 73.859375 L 50.605469 73.859375 L 56.941406 46.160156 L 58.917969 46.160156 L 52.582031 73.859375 "/>
<path style=" stroke:none;fill-rule:nonzero;fill:rgb(97.647059%,65.882353%,70.196078%);fill-opacity:1;" d="M 52.996094 42.398438 C 53.527344 43.25 54.097656 44.15625 54.671875 45.027344 C 55.25 45.898438 55.832031 46.769531 56.429688 47.621094 C 57.625 49.328125 58.871094 50.996094 60.199219 52.5 C 60.867188 53.238281 61.554688 53.953125 62.253906 54.519531 L 62.511719 54.726562 C 62.570312 54.769531 62.613281 54.816406 62.691406 54.859375 C 62.820312 54.953125 62.996094 55.046875 63.171875 55.140625 C 63.539062 55.328125 63.972656 55.492188 64.425781 55.640625 C 64.878906 55.792969 65.355469 55.929688 65.84375 56.050781 C 66.328125 56.179688 66.828125 56.292969 67.332031 56.398438 C 68.335938 56.613281 69.382812 56.804688 70.394531 56.980469 L 70.394531 59.089844 C 69.816406 59.175781 69.277344 59.214844 68.714844 59.253906 C 68.160156 59.296875 67.601562 59.308594 67.039062 59.3125 C 65.914062 59.308594 64.777344 59.238281 63.601562 59.039062 C 63.011719 58.929688 62.414062 58.792969 61.789062 58.582031 C 61.472656 58.46875 61.15625 58.34375 60.820312 58.167969 C 60.65625 58.089844 60.484375 57.976562 60.316406 57.875 L 59.925781 57.605469 C 58.917969 56.875 58.0625 56.082031 57.261719 55.261719 C 55.664062 53.621094 54.277344 51.886719 52.972656 50.101562 C 52.324219 49.210938 51.699219 48.308594 51.097656 47.386719 C 50.492188 46.460938 49.910156 45.554688 49.339844 44.566406 L 52.996094 42.398438 "/>
<path style=" stroke:none;fill-rule:nonzero;fill:rgb(25.098039%,43.529412%,74.901961%);fill-opacity:1;" d="M 47.949219 42.976562 C 47.65625 45.613281 53.925781 51.917969 53.925781 51.917969 L 58.167969 48.371094 C 58.167969 48.371094 56.164062 44.925781 54.046875 42.296875 C 51.636719 39.304688 48.28125 39.996094 47.949219 42.976562 "/>
<path style=" stroke:none;fill-rule:nonzero;fill:rgb(17.647059%,35.686275%,69.803922%);fill-opacity:1;" d="M 53.238281 50.855469 C 53.167969 49.535156 53.054688 48.335938 52.921875 47.261719 C 53.4375 48.183594 53.832031 49.15625 53.949219 50.277344 L 53.238281 50.855469 "/>
<path style=" stroke:none;fill-rule:nonzero;fill:rgb(25.098039%,43.529412%,74.901961%);fill-opacity:1;" d="M 57.824219 47.15625 L 58.273438 48.453125 L 53.523438 52.359375 L 52.582031 51.382812 L 57.824219 47.15625 "/>
<path style=" stroke:none;fill-rule:nonzero;fill:rgb(21.176471%,39.607843%,72.54902%);fill-opacity:1;" d="M 53.523438 52.359375 L 53.289062 52.113281 C 53.273438 51.683594 53.257812 51.261719 53.238281 50.855469 L 57.824219 47.15625 L 58.273438 48.453125 L 57.488281 49.097656 L 54.234375 51.773438 L 53.523438 52.359375 "/>
<path style=" stroke:none;fill-rule:nonzero;fill:rgb(97.647059%,65.882353%,70.196078%);fill-opacity:1;" d="M 70.179688 56.9375 L 73.472656 57.503906 L 71.660156 60.390625 C 71.230469 60.464844 69.507812 59.527344 68.746094 58.371094 L 70.179688 56.9375 "/>
<path style=" stroke:none;fill-rule:nonzero;fill:rgb(97.647059%,65.882353%,70.196078%);fill-opacity:1;" d="M 75.503906 59.464844 L 74.1875 60.960938 L 71.660156 60.394531 L 73.472656 57.503906 L 75.503906 59.464844 "/>
<path style=" stroke:none;fill-rule:nonzero;fill:rgb(25.098039%,43.529412%,74.901961%);fill-opacity:1;" d="M 51.363281 40.453125 C 51.363281 40.453125 54.964844 48.933594 52.371094 64.726562 C 47.855469 64.726562 39.578125 64.726562 37.382812 64.726562 C 37.199219 62.421875 38.253906 51.175781 35.660156 40.308594 C 35.660156 40.308594 38.210938 39.792969 40.65625 39.675781 C 42.566406 39.582031 45.339844 39.523438 47.027344 39.675781 C 49.253906 39.878906 51.363281 40.453125 51.363281 40.453125 "/>
<path style=" stroke:none;fill-rule:nonzero;fill:rgb(58.823529%,61.176471%,63.137255%);fill-opacity:1;" d="M 37.378906 54 C 37.355469 53.441406 37.332031 52.867188 37.300781 52.28125 L 37.300781 52.277344 C 37.332031 52.863281 37.359375 53.4375 37.378906 53.996094 C 37.378906 54 37.378906 54 37.378906 54 "/>
<path style=" stroke:none;fill-rule:nonzero;fill:rgb(65.490196%,66.27451%,65.882353%);fill-opacity:1;" d="M 37.300781 52.28125 C 37.269531 51.738281 37.234375 51.183594 37.195312 50.617188 C 37.234375 51.179688 37.269531 51.734375 37.300781 52.277344 L 37.300781 52.28125 "/>
<path style=" stroke:none;fill-rule:nonzero;fill:rgb(17.647059%,35.686275%,69.803922%);fill-opacity:1;" d="M 37.378906 53.996094 C 37.359375 53.4375 37.332031 52.863281 37.300781 52.277344 C 37.269531 51.734375 37.234375 51.179688 37.195312 50.617188 C 37.765625 49.417969 38.4375 47.933594 38.976562 46.535156 C 38.757812 48.582031 38.25 51.183594 37.378906 53.996094 "/>
<path style=" stroke:none;fill-rule:nonzero;fill:rgb(97.647059%,65.882353%,70.196078%);fill-opacity:1;" d="M 41.039062 32.484375 C 41.511719 34.539062 42.042969 38.304688 40.65625 39.675781 C 40.65625 39.675781 41.253906 41.378906 45.0625 41.378906 C 49.253906 41.378906 47.027344 39.675781 47.027344 39.675781 C 44.722656 39.128906 44.722656 37.429688 45.066406 35.832031 L 41.039062 32.484375 "/>
<path style=" stroke:none;fill-rule:nonzero;fill:rgb(100%,100%,100%);fill-opacity:1;" d="M 45.324219 41.535156 L 46.21875 42.488281 C 46.269531 42.546875 46.285156 42.632812 46.25 42.703125 L 45.800781 43.648438 C 45.773438 43.710938 45.707031 43.753906 45.636719 43.757812 L 44.957031 43.789062 C 44.890625 43.792969 44.828125 43.761719 44.789062 43.707031 L 44.164062 42.800781 C 44.113281 42.730469 44.117188 42.632812 44.171875 42.566406 L 45.035156 41.542969 C 45.109375 41.453125 45.246094 41.453125 45.324219 41.535156 "/>
<path style=" stroke:none;fill-rule:nonzero;fill:rgb(9.019608%,15.686275%,18.431373%);fill-opacity:1;" d="M 45.175781 41.378906 C 44.484375 42.390625 44.445312 43.691406 44.445312 43.691406 C 44.445312 43.691406 39.582031 42.023438 39.800781 39.582031 C 39.800781 39.582031 40.621094 39.183594 41.046875 38.859375 C 41.046875 38.859375 41.207031 40.398438 45.175781 41.378906 "/>
<path style=" stroke:none;fill-rule:nonzero;fill:rgb(9.019608%,15.686275%,18.431373%);fill-opacity:1;" d="M 45.175781 41.378906 C 45.867188 42.390625 46.09375 43.542969 46.09375 43.542969 C 46.09375 43.542969 48.351562 41.996094 47.710938 39.582031 C 47.710938 39.582031 46.988281 39.429688 46.382812 39.296875 C 46.382812 39.296875 46.664062 40.855469 45.175781 41.378906 "/>
<path style=" stroke:none;fill-rule:nonzero;fill:rgb(100%,100%,100%);fill-opacity:1;" d="M 45.726562 43.65625 C 46.035156 44.652344 48.289062 52.050781 48.34375 53.820312 L 48.339844 53.863281 C 48.132812 54.816406 47.191406 56.488281 46.804688 57.144531 C 46.738281 57.257812 46.570312 57.246094 46.519531 57.125 C 46.257812 56.480469 45.617188 54.933594 45.203125 54.027344 L 45.1875 53.972656 C 44.988281 50.742188 44.9375 45.71875 44.835938 43.710938 C 44.832031 43.617188 44.90625 43.542969 44.996094 43.542969 L 45.574219 43.542969 C 45.644531 43.542969 45.707031 43.589844 45.726562 43.65625 "/>
<path style=" stroke:none;fill-rule:nonzero;fill:rgb(71.372549%,72.156863%,71.372549%);fill-opacity:1;" d="M 44.90625 36.964844 C 44.90625 36.933594 44.910156 36.90625 44.910156 36.875 C 44.910156 36.90625 44.90625 36.933594 44.90625 36.964844 M 45.0625 35.832031 L 44.527344 35.382812 L 45.0625 35.832031 "/>
<path style=" stroke:none;fill-rule:nonzero;fill:rgb(84.705882%,53.72549%,54.901961%);fill-opacity:1;" d="M 44.90625 36.964844 C 44.027344 36.835938 42.796875 35.875 42.671875 34.960938 C 42.609375 34.503906 42.613281 34.066406 42.679688 33.851562 L 44.527344 35.382812 L 45.0625 35.832031 C 44.988281 36.179688 44.929688 36.53125 44.910156 36.875 C 44.910156 36.90625 44.90625 36.933594 44.90625 36.964844 "/>
<path style=" stroke:none;fill-rule:nonzero;fill:rgb(9.019608%,15.686275%,18.431373%);fill-opacity:1;" d="M 46.90625 26.375 C 47.476562 26.800781 48.441406 28.59375 47.203125 29.058594 C 45.964844 29.527344 45.519531 25.339844 46.90625 26.375 "/>
<path style=" stroke:none;fill-rule:nonzero;fill:rgb(97.647059%,65.882353%,70.196078%);fill-opacity:1;" d="M 40.296875 30.023438 C 40.867188 32.757812 41.0625 34.382812 42.660156 35.644531 C 45.0625 37.539062 48.289062 35.902344 48.546875 33.082031 C 48.78125 30.542969 47.8125 26.496094 44.953125 25.695312 C 42.136719 24.910156 39.730469 27.289062 40.296875 30.023438 "/>
<path style=" stroke:none;fill-rule:nonzero;fill:rgb(9.019608%,15.686275%,18.431373%);fill-opacity:1;" d="M 40.65625 32.085938 L 41.804688 31.316406 L 41.875 30.652344 C 41.980469 29.683594 41.800781 28.707031 41.359375 27.839844 C 41.359375 27.839844 46.925781 28.050781 47.617188 26.300781 C 48.308594 24.554688 46.34375 23.246094 46.34375 23.246094 C 46.34375 23.246094 44.375 24.375 43.042969 24.46875 C 41.710938 24.5625 37.640625 22.894531 37.640625 26.339844 C 35.847656 26.894531 35.90625 29.859375 40.65625 32.085938 "/>
<path style=" stroke:none;fill-rule:nonzero;fill:rgb(9.019608%,15.686275%,18.431373%);fill-opacity:1;" d="M 37.851562 26.476562 C 37.851562 26.476562 37.113281 25.886719 37.664062 24.097656 C 36.988281 24.433594 36.664062 26.261719 37.851562 26.476562 "/>
<path style=" stroke:none;fill-rule:nonzero;fill:rgb(97.647059%,65.882353%,70.196078%);fill-opacity:1;" d="M 39.492188 33.195312 C 39.976562 33.785156 40.679688 34.109375 41.296875 34.175781 C 42.226562 34.273438 42.507812 33.414062 42.09375 32.625 C 41.722656 31.914062 40.792969 31.007812 39.9375 31.277344 C 39.089844 31.539062 38.941406 32.523438 39.492188 33.195312 "/>
<path style=" stroke:none;fill-rule:nonzero;fill:rgb(9.019608%,15.686275%,18.431373%);fill-opacity:1;" d="M 53.636719 73.859375 L 44.058594 73.859375 C 43.195312 68.644531 42.503906 64.726562 42.503906 64.726562 L 52.371094 64.726562 C 52.371094 64.726562 52.925781 68.582031 53.636719 73.859375 "/>
<path style=" stroke:none;fill-rule:nonzero;fill:rgb(9.019608%,15.686275%,18.431373%);fill-opacity:1;" d="M 37.746094 73.859375 C 37.53125 68.644531 37.367188 64.726562 37.367188 64.726562 L 47.039062 64.726562 C 47.039062 64.726562 47.089844 68.695312 47.109375 73.859375 L 37.746094 73.859375 "/>
<path style=" stroke:none;fill-rule:nonzero;fill:rgb(9.019608%,15.686275%,18.431373%);fill-opacity:1;" d="M 44.597656 30.332031 C 44.628906 30.554688 44.773438 30.726562 44.921875 30.707031 C 45.066406 30.691406 45.160156 30.496094 45.128906 30.273438 C 45.09375 30.050781 44.949219 29.878906 44.800781 29.898438 C 44.65625 29.914062 44.5625 30.109375 44.597656 30.332031 "/>
<path style=" stroke:none;fill-rule:nonzero;fill:rgb(9.019608%,15.686275%,18.431373%);fill-opacity:1;" d="M 47.136719 30.050781 C 47.167969 30.277344 47.3125 30.445312 47.460938 30.429688 C 47.605469 30.414062 47.699219 30.21875 47.667969 29.992188 C 47.636719 29.769531 47.488281 29.601562 47.34375 29.617188 C 47.195312 29.632812 47.101562 29.828125 47.136719 30.050781 "/>
<path style=" stroke:none;fill-rule:nonzero;fill:rgb(95.686275%,40.784314%,47.058824%);fill-opacity:1;" d="M 46.34375 30.253906 C 46.34375 30.253906 47.042969 31.492188 47.695312 32.054688 C 47.351562 32.46875 46.652344 32.371094 46.652344 32.371094 L 46.34375 30.253906 "/>
<path style=" stroke:none;fill-rule:nonzero;fill:rgb(9.019608%,15.686275%,18.431373%);fill-opacity:1;" d="M 45.617188 33.066406 C 45.761719 33.082031 45.917969 33.082031 46.082031 33.0625 C 46.121094 33.058594 46.148438 33.027344 46.144531 32.992188 C 46.140625 32.953125 46.105469 32.929688 46.070312 32.929688 C 45.082031 33.039062 44.519531 32.402344 44.515625 32.394531 C 44.492188 32.367188 44.449219 32.363281 44.421875 32.390625 C 44.394531 32.414062 44.390625 32.453125 44.414062 32.484375 C 44.4375 32.507812 44.855469 32.984375 45.617188 33.066406 "/>
<path style=" stroke:none;fill-rule:nonzero;fill:rgb(9.019608%,15.686275%,18.431373%);fill-opacity:1;" d="M 43.679688 29.597656 C 43.730469 29.605469 43.78125 29.578125 43.808594 29.53125 C 44.089844 29.03125 44.566406 29.003906 44.585938 29.003906 C 44.660156 29 44.71875 28.9375 44.714844 28.863281 C 44.710938 28.789062 44.648438 28.730469 44.578125 28.738281 C 44.550781 28.738281 43.933594 28.769531 43.578125 29.402344 C 43.542969 29.464844 43.5625 29.546875 43.628906 29.582031 L 43.679688 29.597656 "/>
<path style=" stroke:none;fill-rule:nonzero;fill:rgb(9.019608%,15.686275%,18.431373%);fill-opacity:1;" d="M 48.085938 29.058594 C 48.117188 29.0625 48.148438 29.054688 48.175781 29.039062 C 48.238281 28.996094 48.253906 28.914062 48.210938 28.851562 C 47.800781 28.234375 47.1875 28.21875 47.160156 28.21875 C 47.085938 28.21875 47.027344 28.277344 47.027344 28.351562 C 47.027344 28.421875 47.085938 28.484375 47.15625 28.484375 C 47.179688 28.484375 47.660156 28.503906 47.992188 29 C 48.015625 29.035156 48.050781 29.054688 48.085938 29.058594 "/>
<path style=" stroke:none;fill-rule:nonzero;fill:rgb(97.647059%,65.882353%,70.196078%);fill-opacity:1;" d="M 38.519531 44.53125 L 37.855469 45.679688 C 37.632812 46.074219 37.410156 46.472656 37.199219 46.875 C 36.769531 47.675781 36.351562 48.484375 35.957031 49.296875 C 35.570312 50.109375 35.199219 50.929688 34.863281 51.75 C 34.703125 52.160156 34.542969 52.574219 34.40625 52.984375 L 34.195312 53.601562 L 34.015625 54.214844 L 33.96875 54.367188 L 33.945312 54.445312 L 33.941406 54.460938 C 33.933594 54.464844 33.925781 54.496094 33.917969 54.53125 C 33.90625 54.609375 33.90625 54.734375 33.917969 54.882812 C 33.945312 55.179688 34.023438 55.554688 34.140625 55.933594 C 34.378906 56.703125 34.714844 57.527344 35.097656 58.335938 C 35.859375 59.96875 36.78125 61.613281 37.691406 63.21875 L 36.03125 64.519531 C 35.324219 63.808594 34.691406 63.082031 34.066406 62.316406 C 33.445312 61.554688 32.855469 60.761719 32.296875 59.925781 C 31.753906 59.078125 31.21875 58.207031 30.789062 57.191406 C 30.574219 56.683594 30.375 56.144531 30.238281 55.503906 C 30.171875 55.183594 30.125 54.835938 30.121094 54.4375 C 30.125 54.234375 30.132812 54.027344 30.167969 53.796875 L 30.195312 53.636719 L 30.214844 53.542969 L 30.253906 53.347656 C 30.441406 52.304688 30.730469 51.324219 31.046875 50.355469 C 31.359375 49.386719 31.734375 48.457031 32.128906 47.535156 C 32.527344 46.621094 32.960938 45.726562 33.421875 44.851562 C 33.65625 44.414062 33.894531 43.980469 34.144531 43.550781 C 34.390625 43.109375 34.640625 42.707031 34.933594 42.25 L 38.519531 44.53125 "/>
<path style=" stroke:none;fill-rule:nonzero;fill:rgb(25.098039%,43.529412%,74.901961%);fill-opacity:1;" d="M 35.660156 40.308594 C 33.023438 40.695312 30.304688 49.902344 30.304688 49.902344 L 35.980469 53.054688 C 35.980469 53.054688 38.28125 48.675781 39.378906 45.425781 C 40.527344 42.019531 38.488281 39.894531 35.660156 40.308594 "/>
<path style=" stroke:none;fill-rule:nonzero;fill:rgb(25.098039%,43.529412%,74.901961%);fill-opacity:1;" d="M 30.421875 48.605469 L 30.179688 49.960938 L 36.015625 53.175781 L 36.792969 52.0625 L 30.421875 48.605469 "/>
<path style=" stroke:none;fill-rule:nonzero;fill:rgb(21.176471%,39.607843%,72.54902%);fill-opacity:1;" d="M 36.015625 53.175781 L 34.613281 52.402344 L 31.023438 50.421875 L 30.179688 49.960938 L 30.421875 48.605469 L 36.792969 52.0625 L 36.015625 53.175781 "/>
<path style=" stroke:none;fill-rule:nonzero;fill:rgb(97.647059%,65.882353%,70.196078%);fill-opacity:1;" d="M 36.941406 62.597656 L 39.730469 62.113281 L 38.300781 65.347656 C 38.300781 65.347656 35.753906 65.332031 35.871094 64.019531 L 36.941406 62.597656 "/>
<path style=" stroke:none;fill-rule:nonzero;fill:rgb(97.647059%,65.882353%,70.196078%);fill-opacity:1;" d="M 41.8125 63.738281 L 40.503906 66.351562 L 38.300781 65.347656 L 39.730469 62.113281 L 41.8125 63.738281 "/>
<path style=" stroke:none;fill-rule:nonzero;fill:rgb(25.098039%,43.529412%,74.901961%);fill-opacity:1;" d="M 129.027344 75.558594 L 88.605469 75.558594 C 88.019531 75.558594 87.554688 75.078125 87.574219 74.488281 L 88.527344 45.53125 C 88.546875 44.941406 89.046875 44.457031 89.632812 44.457031 L 130.054688 44.457031 C 130.644531 44.457031 131.109375 44.941406 131.089844 45.53125 L 130.132812 74.488281 C 130.113281 75.078125 129.617188 75.558594 129.027344 75.558594 "/>
<path style=" stroke:none;fill-rule:nonzero;fill:rgb(14.901961%,32.54902%,58.823529%);fill-opacity:1;" d="M 129.027344 75.558594 L 128.699219 75.558594 C 129.285156 75.558594 129.785156 75.078125 129.800781 74.488281 L 130.757812 45.53125 C 130.777344 44.941406 130.3125 44.457031 129.726562 44.457031 L 115.578125 44.457031 L 130.054688 44.457031 C 130.632812 44.457031 131.089844 44.921875 131.089844 45.496094 C 131.089844 45.507812 131.089844 45.519531 131.089844 45.53125 L 130.132812 74.488281 C 130.113281 75.078125 129.617188 75.558594 129.027344 75.558594 "/>
<path style=" stroke:none;fill-rule:nonzero;fill:rgb(25.098039%,43.529412%,74.901961%);fill-opacity:1;" d="M 128.699219 75.558594 L 88.277344 75.558594 C 87.6875 75.558594 87.222656 75.078125 87.242188 74.488281 L 88.199219 45.53125 C 88.21875 44.941406 88.714844 44.457031 89.304688 44.457031 L 129.726562 44.457031 C 130.3125 44.457031 130.777344 44.941406 130.757812 45.53125 L 129.800781 74.488281 C 129.785156 75.078125 129.285156 75.558594 128.699219 75.558594 "/>
<path style=" stroke:none;fill-rule:nonzero;fill:rgb(25.098039%,43.529412%,74.901961%);fill-opacity:1;" d="M 128.175781 75.507812 L 79.359375 75.507812 C 78.851562 75.507812 78.410156 75.804688 78.207031 76.230469 C 78.089844 76.472656 78.269531 76.757812 78.542969 76.757812 L 128.992188 76.757812 C 129.269531 76.757812 129.449219 76.472656 129.332031 76.230469 C 129.125 75.804688 128.683594 75.507812 128.175781 75.507812 "/>
<path style=" stroke:none;fill-rule:nonzero;fill:rgb(14.901961%,32.54902%,58.823529%);fill-opacity:1;" d="M 128.992188 76.757812 L 119.878906 76.757812 C 119.605469 76.757812 119.425781 76.472656 119.542969 76.230469 C 119.746094 75.804688 120.1875 75.507812 120.695312 75.507812 L 128.175781 75.507812 C 128.683594 75.507812 129.125 75.804688 129.332031 76.230469 C 129.355469 76.28125 129.367188 76.335938 129.367188 76.390625 C 129.367188 76.582031 129.210938 76.757812 128.992188 76.757812 "/>
<path style=" stroke:none;fill-rule:nonzero;fill:rgb(20.784314%,38.823529%,71.764706%);fill-opacity:1;" d="M 103.097656 76.757812 L 92.058594 76.757812 C 92.058594 76.503906 92.261719 76.300781 92.511719 76.300781 L 102.644531 76.300781 C 102.894531 76.300781 103.097656 76.503906 103.097656 76.757812 "/>
<path style=" stroke:none;fill-rule:nonzero;fill:rgb(90.196078%,93.72549%,98.039216%);fill-opacity:1;" d="M 128.476562 73.859375 L 116.558594 73.859375 L 122.894531 46.160156 L 117.398438 46.160156 L 116.984375 47.96875 C 116.792969 47.425781 116.5625 46.804688 116.304688 46.160156 L 129.390625 46.160156 C 129.621094 46.160156 129.800781 46.347656 129.792969 46.578125 L 128.90625 73.441406 C 128.898438 73.667969 128.703125 73.859375 128.476562 73.859375 M 94.285156 73.859375 L 92.691406 73.859375 L 95.246094 62.691406 C 95.335938 63.355469 95.4375 64.035156 95.550781 64.726562 C 95.542969 64.792969 94.992188 68.628906 94.285156 73.859375 M 90.714844 73.859375 L 88.609375 73.859375 C 88.382812 73.859375 88.199219 73.667969 88.207031 73.441406 L 88.75 57.027344 C 89.445312 56.460938 90.066406 55.871094 90.664062 55.261719 C 91.753906 54.140625 92.75 52.972656 93.6875 51.773438 L 94.398438 52.359375 L 94.636719 52.113281 C 94.632812 52.15625 94.632812 52.199219 94.632812 52.242188 C 94.597656 53.566406 94.605469 54.996094 94.675781 56.527344 L 90.714844 73.859375 M 111.378906 72.46875 C 111.378906 72.441406 111.378906 72.414062 111.378906 72.386719 C 111.378906 68.96875 110.898438 66.292969 110.671875 65.226562 C 111.222656 65.109375 111.824219 64.875 112.003906 64.40625 C 112.585938 63.8125 113.117188 63.207031 113.640625 62.582031 L 111.378906 72.46875 M 110.621094 62.535156 L 110.546875 62.523438 C 110.492188 59.90625 110.363281 55.574219 110.730469 50.617188 C 110.753906 50.671875 110.78125 50.726562 110.808594 50.78125 C 110.980469 51.144531 111.148438 51.484375 111.292969 51.78125 C 111.292969 51.777344 111.292969 51.777344 111.292969 51.777344 C 111.320312 51.828125 111.34375 51.882812 111.371094 51.933594 L 111.132812 52.0625 L 111.910156 53.175781 L 113.308594 52.402344 C 113.382812 52.597656 113.453125 52.789062 113.519531 52.984375 L 113.730469 53.601562 L 113.910156 54.214844 L 113.953125 54.367188 L 113.976562 54.445312 L 113.984375 54.460938 C 113.992188 54.464844 113.996094 54.496094 114.003906 54.53125 C 114.015625 54.609375 114.015625 54.734375 114.003906 54.882812 C 113.980469 55.179688 113.898438 55.554688 113.78125 55.933594 C 113.542969 56.703125 113.210938 57.527344 112.824219 58.335938 C 112.171875 59.738281 111.398438 61.148438 110.621094 62.535156 M 88.949219 51.042969 L 89.09375 46.578125 C 89.101562 46.347656 89.296875 46.160156 89.527344 46.160156 L 91.128906 46.160156 C 90.832031 46.613281 90.574219 47.027344 90.363281 47.367188 L 90.097656 47.15625 L 89.652344 48.453125 L 90.4375 49.097656 C 89.949219 49.761719 89.453125 50.414062 88.949219 51.042969 "/>
<path style=" stroke:none;fill-rule:nonzero;fill:rgb(100%,100%,100%);fill-opacity:1;" d="M 116.558594 73.859375 L 111.0625 73.859375 L 117.398438 46.160156 L 122.894531 46.160156 L 116.558594 73.859375 "/>
<path style=" stroke:none;fill-rule:nonzero;fill:rgb(100%,100%,100%);fill-opacity:1;" d="M 92.691406 73.859375 L 90.714844 73.859375 L 97.050781 46.160156 L 99.027344 46.160156 L 92.691406 73.859375 "/>
<path style=" stroke:none;fill-rule:nonzero;fill:rgb(100%,100%,100%);fill-opacity:1;" d="M 121.066406 73.859375 L 119.085938 73.859375 L 125.421875 46.160156 L 127.398438 46.160156 L 121.066406 73.859375 "/>
<path style=" stroke:none;fill-rule:nonzero;fill:rgb(80.392157%,29.411765%,30.980392%);fill-opacity:1;" d="M 106.886719 32.484375 C 106.414062 34.539062 105.882812 38.304688 107.269531 39.675781 C 107.269531 39.675781 106.667969 41.378906 102.859375 41.378906 C 98.671875 41.378906 100.894531 39.675781 100.894531 39.675781 C 103.203125 39.128906 103.203125 37.429688 102.859375 35.832031 L 106.886719 32.484375 "/>
<path style=" stroke:none;fill-rule:nonzero;fill:rgb(80.784314%,29.019608%,30.980392%);fill-opacity:1;" d="M 112.988281 42.25 C 113.285156 42.707031 113.53125 43.109375 113.78125 43.550781 C 114.027344 43.980469 114.265625 44.414062 114.5 44.851562 C 114.964844 45.726562 115.398438 46.621094 115.796875 47.535156 C 116.191406 48.457031 116.5625 49.386719 116.878906 50.355469 C 117.191406 51.324219 117.484375 52.304688 117.667969 53.347656 L 117.707031 53.542969 L 117.726562 53.636719 L 117.753906 53.796875 C 117.789062 54.027344 117.800781 54.234375 117.800781 54.4375 C 117.800781 54.835938 117.753906 55.183594 117.6875 55.503906 C 117.550781 56.144531 117.351562 56.683594 117.136719 57.191406 C 116.703125 58.207031 116.171875 59.078125 115.625 59.925781 C 115.066406 60.761719 114.476562 61.554688 113.855469 62.316406 C 113.230469 63.082031 112.597656 63.808594 111.890625 64.519531 L 110.234375 63.21875 C 111.140625 61.613281 112.066406 59.96875 112.824219 58.335938 C 113.210938 57.527344 113.542969 56.703125 113.78125 55.933594 C 113.898438 55.554688 113.980469 55.179688 114.003906 54.882812 C 114.015625 54.734375 114.015625 54.609375 114.003906 54.53125 C 113.996094 54.496094 113.992188 54.464844 113.984375 54.460938 L 113.976562 54.445312 L 113.953125 54.367188 L 113.910156 54.214844 L 113.730469 53.601562 L 113.519531 52.984375 C 113.378906 52.574219 113.21875 52.160156 113.058594 51.75 C 112.726562 50.929688 112.355469 50.109375 111.964844 49.296875 C 111.570312 48.484375 111.15625 47.675781 110.726562 46.875 C 110.511719 46.472656 110.292969 46.074219 110.066406 45.679688 L 109.402344 44.53125 L 112.988281 42.25 "/>
<path style=" stroke:none;fill-rule:nonzero;fill:rgb(9.019608%,15.686275%,18.431373%);fill-opacity:1;" d="M 112.261719 40.308594 C 114.902344 40.695312 117.621094 49.902344 117.621094 49.902344 L 111.941406 53.054688 C 111.941406 53.054688 109.640625 48.675781 108.542969 45.425781 C 107.394531 42.019531 109.433594 39.894531 112.261719 40.308594 "/>
<path style=" stroke:none;fill-rule:nonzero;fill:rgb(59.215686%,62.745098%,66.666667%);fill-opacity:1;" d="M 111.292969 51.78125 C 111.148438 51.484375 110.980469 51.144531 110.808594 50.78125 C 110.980469 51.144531 111.144531 51.480469 111.292969 51.777344 C 111.292969 51.777344 111.292969 51.777344 111.292969 51.78125 "/>
<path style=" stroke:none;fill-rule:nonzero;fill:rgb(5.882353%,9.803922%,11.372549%);fill-opacity:1;" d="M 111.292969 51.777344 C 111.144531 51.480469 110.980469 51.144531 110.808594 50.78125 C 110.78125 50.726562 110.753906 50.671875 110.730469 50.617188 C 110.8125 49.496094 110.921875 48.339844 111.0625 47.167969 C 111.40625 48.894531 111.382812 50.597656 111.292969 51.777344 "/>
<path style=" stroke:none;fill-rule:nonzero;fill:rgb(25.098039%,43.529412%,74.901961%);fill-opacity:1;" d="M 117.503906 48.605469 L 117.742188 49.960938 L 111.910156 53.175781 L 111.132812 52.0625 L 117.503906 48.605469 "/>
<path style=" stroke:none;fill-rule:nonzero;fill:rgb(21.176471%,39.607843%,72.54902%);fill-opacity:1;" d="M 111.910156 53.175781 L 111.132812 52.0625 L 117.503906 48.605469 L 117.742188 49.960938 L 116.902344 50.421875 L 113.308594 52.402344 L 111.910156 53.175781 "/>
<path style=" stroke:none;fill-rule:nonzero;fill:rgb(80.392157%,29.411765%,30.980392%);fill-opacity:1;" d="M 110.980469 62.597656 L 108.191406 62.113281 L 109.625 65.347656 C 109.625 65.347656 112.171875 65.332031 112.054688 64.019531 L 110.980469 62.597656 "/>
<path style=" stroke:none;fill-rule:nonzero;fill:rgb(80.392157%,29.411765%,30.980392%);fill-opacity:1;" d="M 106.109375 63.738281 L 107.421875 66.351562 L 109.625 65.347656 L 108.191406 62.113281 L 106.109375 63.738281 "/>
<path style=" stroke:none;fill-rule:nonzero;fill:rgb(9.019608%,15.686275%,18.431373%);fill-opacity:1;" d="M 96.558594 40.453125 C 96.558594 40.453125 92.957031 48.933594 95.550781 64.726562 C 100.070312 64.726562 108.34375 64.726562 110.542969 64.726562 C 110.726562 62.421875 109.667969 51.175781 112.261719 40.308594 C 112.261719 40.308594 109.710938 39.792969 107.269531 39.675781 C 105.355469 39.582031 102.585938 39.523438 100.894531 39.675781 C 98.667969 39.878906 96.558594 40.453125 96.558594 40.453125 "/>
<path style=" stroke:none;fill-rule:nonzero;fill:rgb(59.215686%,62.745098%,66.666667%);fill-opacity:1;" d="M 94.632812 52.242188 C 94.632812 52.199219 94.632812 52.15625 94.636719 52.113281 C 94.632812 52.15625 94.632812 52.199219 94.632812 52.242188 "/>
<path style=" stroke:none;fill-rule:nonzero;fill:rgb(5.882353%,9.803922%,11.372549%);fill-opacity:1;" d="M 94.613281 53.433594 C 94.617188 53.027344 94.621094 52.628906 94.632812 52.242188 C 94.632812 52.199219 94.632812 52.15625 94.636719 52.113281 L 95.339844 51.382812 L 95.117188 51.203125 C 95.703125 50.519531 96.574219 49.46875 97.417969 48.320312 C 97.015625 50.253906 96.226562 52.378906 94.613281 53.433594 "/>
<path style=" stroke:none;fill-rule:nonzero;fill:rgb(80.784314%,29.019608%,30.980392%);fill-opacity:1;" d="M 98.582031 44.566406 C 98.011719 45.554688 97.433594 46.460938 96.828125 47.386719 C 96.226562 48.308594 95.601562 49.210938 94.949219 50.101562 C 93.644531 51.886719 92.257812 53.621094 90.664062 55.261719 C 89.859375 56.082031 89.003906 56.875 87.996094 57.605469 L 87.609375 57.875 C 87.441406 57.976562 87.265625 58.089844 87.101562 58.167969 C 86.769531 58.34375 86.453125 58.46875 86.136719 58.582031 C 85.507812 58.792969 84.910156 58.929688 84.320312 59.039062 C 83.144531 59.238281 82.011719 59.308594 80.886719 59.3125 C 80.324219 59.308594 79.765625 59.296875 79.207031 59.253906 C 78.648438 59.214844 78.105469 59.175781 77.53125 59.089844 L 77.527344 56.980469 C 78.539062 56.804688 79.589844 56.613281 80.589844 56.398438 C 81.097656 56.292969 81.59375 56.179688 82.082031 56.050781 C 82.570312 55.929688 83.046875 55.792969 83.496094 55.640625 C 83.949219 55.492188 84.382812 55.328125 84.75 55.140625 C 84.925781 55.046875 85.105469 54.953125 85.234375 54.859375 C 85.308594 54.816406 85.351562 54.769531 85.410156 54.726562 L 85.667969 54.519531 C 86.371094 53.953125 87.054688 53.238281 87.722656 52.5 C 89.054688 50.996094 90.296875 49.328125 91.492188 47.621094 C 92.089844 46.769531 92.671875 45.898438 93.253906 45.027344 C 93.824219 44.15625 94.394531 43.25 94.929688 42.398438 L 98.582031 44.566406 "/>
<path style=" stroke:none;fill-rule:nonzero;fill:rgb(9.019608%,15.686275%,18.431373%);fill-opacity:1;" d="M 99.972656 42.976562 C 100.265625 45.613281 94.402344 52.011719 94.402344 52.011719 L 89.757812 48.371094 C 89.757812 48.371094 91.761719 44.925781 93.878906 42.296875 C 96.289062 39.304688 99.640625 39.996094 99.972656 42.976562 "/>
<path style=" stroke:none;fill-rule:nonzero;fill:rgb(25.098039%,43.529412%,74.901961%);fill-opacity:1;" d="M 90.097656 47.15625 L 89.652344 48.453125 L 94.398438 52.359375 L 95.339844 51.382812 L 90.097656 47.15625 "/>
<path style=" stroke:none;fill-rule:nonzero;fill:rgb(21.176471%,39.607843%,72.54902%);fill-opacity:1;" d="M 94.398438 52.359375 L 93.6875 51.773438 L 90.4375 49.097656 L 89.652344 48.453125 L 90.097656 47.15625 L 95.339844 51.382812 L 94.636719 52.113281 L 94.398438 52.359375 "/>
<path style=" stroke:none;fill-rule:nonzero;fill:rgb(80.392157%,29.411765%,30.980392%);fill-opacity:1;" d="M 77.527344 56.992188 L 74.1875 57.042969 L 75.53125 60.175781 C 75.945312 60.3125 77.792969 59.65625 78.722656 58.628906 L 77.527344 56.992188 "/>
<path style=" stroke:none;fill-rule:nonzero;fill:rgb(80.392157%,29.411765%,30.980392%);fill-opacity:1;" d="M 71.878906 58.664062 L 73.707031 60.960938 L 75.53125 60.175781 L 74.1875 57.042969 L 71.878906 58.664062 "/>
<path style=" stroke:none;fill-rule:nonzero;fill:rgb(9.019608%,15.686275%,18.431373%);fill-opacity:1;" d="M 99.953125 30.050781 C 99.921875 30.277344 99.777344 30.445312 99.628906 30.429688 C 99.484375 30.414062 99.390625 30.21875 99.421875 29.992188 C 99.457031 29.769531 99.601562 29.601562 99.746094 29.617188 C 99.894531 29.632812 99.988281 29.828125 99.953125 30.050781 "/>
<path style=" stroke:none;fill-rule:nonzero;fill:rgb(73.333333%,13.72549%,16.078431%);fill-opacity:1;" d="M 100.019531 30.253906 C 100.019531 30.253906 99.320312 31.492188 98.667969 32.054688 C 99.011719 32.46875 99.710938 32.371094 99.710938 32.371094 L 100.019531 30.253906 "/>
<path style=" stroke:none;fill-rule:nonzero;fill:rgb(80.392157%,29.411765%,30.980392%);fill-opacity:1;" d="M 107.625 30.023438 C 107.054688 32.757812 106.863281 34.382812 105.265625 35.644531 C 102.859375 37.539062 99.636719 35.902344 99.375 33.082031 C 99.140625 30.542969 100.109375 26.496094 102.972656 25.695312 C 105.789062 24.910156 108.191406 27.289062 107.625 30.023438 "/>
<path style=" stroke:none;fill-rule:nonzero;fill:rgb(25.098039%,43.529412%,74.901961%);fill-opacity:1;" d="M 111.351562 73.859375 C 111.566406 68.644531 110.554688 64.726562 110.554688 64.726562 L 100.882812 64.726562 C 100.882812 64.726562 102.003906 68.695312 101.988281 73.859375 L 111.351562 73.859375 "/>
<path style=" stroke:none;fill-rule:nonzero;fill:rgb(42.745098%,59.215686%,83.921569%);fill-opacity:1;" d="M 111.351562 73.859375 L 105.039062 73.859375 C 105.445312 71.394531 105.550781 69.21875 105.550781 67.613281 C 105.550781 65.816406 105.417969 64.726562 105.417969 64.726562 L 100.882812 64.726562 L 110.554688 64.726562 C 110.554688 64.726562 111.378906 67.925781 111.378906 72.386719 C 111.378906 72.414062 111.378906 72.441406 111.378906 72.46875 C 111.378906 72.917969 111.371094 73.382812 111.351562 73.859375 "/>
<path style=" stroke:none;fill-rule:nonzero;fill:rgb(9.019608%,15.686275%,18.431373%);fill-opacity:1;" d="M 101.699219 30.84375 C 101.167969 30.578125 100.5 27.90625 100.683594 26.957031 C 100.867188 26.003906 103.015625 24.988281 105.128906 25.371094 C 107.246094 25.753906 108.152344 26.5 108.5625 28.425781 C 108.988281 30.429688 107.445312 33.761719 106.683594 34.015625 C 105.664062 34.359375 104.589844 34.210938 103.914062 33.785156 C 103.234375 33.355469 102.882812 30.292969 101.699219 30.84375 "/>
<path style=" stroke:none;fill-rule:nonzero;fill:rgb(9.019608%,15.686275%,18.431373%);fill-opacity:1;" d="M 101.140625 27.917969 C 100.105469 27.976562 99.125 26.332031 100.074219 24.863281 C 101.023438 23.390625 102.640625 23.710938 102.640625 23.710938 C 102.640625 23.710938 102.207031 24.550781 103.644531 24.378906 C 105.085938 24.203125 107.765625 24.601562 108.703125 25.613281 C 109.859375 26.855469 109.160156 29.300781 107.417969 28.699219 C 105.679688 28.101562 101.140625 27.917969 101.140625 27.917969 "/>
<path style=" stroke:none;fill-rule:nonzero;fill:rgb(80.392157%,29.411765%,30.980392%);fill-opacity:1;" d="M 103.394531 30.5 C 103.449219 31.261719 103.15625 31.980469 102.753906 32.457031 C 102.148438 33.167969 101.355469 32.738281 101.113281 31.878906 C 100.894531 31.109375 100.945312 29.808594 101.753906 29.414062 C 102.546875 29.019531 103.332031 29.628906 103.394531 30.5 "/>
<path style=" stroke:none;fill-rule:nonzero;fill:rgb(25.098039%,43.529412%,74.901961%);fill-opacity:1;" d="M 94.285156 73.859375 L 105.039062 73.859375 C 105.898438 68.644531 105.417969 64.726562 105.417969 64.726562 L 95.554688 64.726562 C 95.554688 64.726562 94.996094 68.582031 94.285156 73.859375 "/>
<path style=" stroke:none;fill-rule:nonzero;fill:rgb(42.745098%,59.215686%,83.921569%);fill-opacity:1;" d="M 105.039062 73.859375 L 94.285156 73.859375 C 94.996094 68.582031 95.554688 64.726562 95.554688 64.726562 L 105.417969 64.726562 C 105.417969 64.726562 105.550781 65.816406 105.550781 67.613281 C 105.550781 69.21875 105.445312 71.394531 105.039062 73.859375 "/>
</g>
</svg>
