<svg id="Capa_1" xmlns="http://www.w3.org/2000/svg" xmlns:xlink="http://www.w3.org/1999/xlink" viewBox="0 0 512 512" style="enable-background:new 0 0 512 512"><path style="fill:#f2f2f2" d="M512 256c0 82.317-38.86 155.564-99.234 202.397C369.455 492.001 315.068 512 256 512s-113.455-19.999-156.766-53.603C38.86 411.564.0 338.317.0 256 0 114.615 114.615.0 256 0S512 114.615 512 256z"/><path style="fill:#006bc0" d="M441.992 119.474l-29.226 338.923C369.455 492.001 315.068 512 256 512s-113.455-19.999-156.766-53.603L70.008 119.474H441.992z"/><path style="fill:#0096dc" d="M255.997 151.338V505.296L378.269 470.777 405.545 151.338z"/><path style="fill:#fff" d="M364.036 289.787H275.85L367.999 242.89 371.981 195.746H140.013L144.072 243.811H237.189L147.845 288.484 152.002 337.723v0H311.376L306.152 396.366 255.997 409.95 203.752 395.321 202.446 358.75H153.778L159.866 430.848 255.997 458.015 352.127 430.848 364.039 289.779z"/><g><path style="fill:#222123" d="M165.352 67.224V33.787h48.065V15.676H147.937V85.335H213.417V67.224z"/><path style="fill:#222123" d="M241.542 42.93V34.57H289.347V33.787 15.676H223.866V58.864H270.799V67.224H223.866V85.335H289.347V67.224 42.93z"/><path style="fill:#222123" d="M316.252 42.93V34.57H364.056V33.787 15.676H298.576V58.864H345.509V67.224H298.576V85.335H364.056V67.224 42.93z"/></g><g/><g/><g/><g/><g/><g/><g/><g/><g/><g/><g/><g/><g/><g/><g/></svg>