<svg xmlns:dc="http://purl.org/dc/elements/1.1/" xmlns:cc="http://creativecommons.org/ns#" xmlns:rdf="http://www.w3.org/1999/02/22-rdf-syntax-ns#" xmlns:svg="http://www.w3.org/2000/svg" xmlns="http://www.w3.org/2000/svg" xmlns:sodipodi="http://sodipodi.sourceforge.net/DTD/sodipodi-0.dtd" xmlns:inkscape="http://www.inkscape.org/namespaces/inkscape" id="Capa_1" width="527.40302" height="527.41498" viewBox="0 0 527.40302 527.41496" sodipodi:docname="flickr.svg" inkscape:version="0.92.4 (fd57863, 2020-04-02)"><defs id="defs41" /><sodipodi:namedview pagecolor="#ffffff" bordercolor="#666666" borderopacity="1" objecttolerance="10" gridtolerance="10" guidetolerance="10" inkscape:pageopacity="0" inkscape:pageshadow="2" inkscape:window-width="1920" inkscape:window-height="1016" id="namedview39" showgrid="false" inkscape:zoom=".44746461" inkscape:cx="-797.83396" inkscape:cy="254.76773" inkscape:window-x="0" inkscape:window-y="27" inkscape:window-maximized="1" inkscape:current-layer="Capa_1" /><g id="g6" style="fill:#6c757d;fill-opacity:1" transform="translate(-0.006)"><g id="g4" style="fill:#6c757d;fill-opacity:1"><path d="M428.523.0H98.894C71.653.0 48.36 9.682 29.021 29.009 9.676 48.36.006 71.647.006 98.887v329.634c0 27.24 9.669 50.539 29.015 69.867 19.339 19.34 42.632 29.027 69.872 29.027h329.629c27.24.0 50.526-9.682 69.872-29.027 19.339-19.328 29.015-42.627 29.015-69.865V98.893c0-27.24-9.676-50.526-29.015-69.878C479.049 9.682 455.756.0 428.523.0zM218.38 315.211c-14.199 14.191-31.365 21.285-51.506 21.285-20.147.0-37.314-7.094-51.506-21.285-14.198-14.193-21.292-31.359-21.292-51.506.0-20.147 7.093-37.313 21.292-51.506 14.192-14.192 31.359-21.285 51.506-21.285 20.141.0 37.307 7.093 51.506 21.285 14.192 14.192 21.292 31.359 21.292 51.506.0 20.147-7.099 37.313-21.292 51.506zm193.662.0c-14.198 14.191-31.365 21.285-51.506 21.285-20.147.0-37.313-7.094-51.506-21.285-14.198-14.193-21.292-31.359-21.292-51.506.0-20.147 7.094-37.313 21.292-51.506 14.192-14.192 31.358-21.285 51.506-21.285 20.141.0 37.308 7.093 51.506 21.285 14.192 14.192 21.291 31.359 21.291 51.506.0 20.147-7.099 37.313-21.291 51.506z" id="path2" inkscape:connector-curvature="0" style="fill:#6c757d;fill-opacity:1" /></g></g><g id="g8" transform="translate(-0.006)" /><g id="g10" transform="translate(-0.006)" /><g id="g12" transform="translate(-0.006)" /><g id="g14" transform="translate(-0.006)" /><g id="g16" transform="translate(-0.006)" /><g id="g18" transform="translate(-0.006)" /><g id="g20" transform="translate(-0.006)" /><g id="g22" transform="translate(-0.006)" /><g id="g24" transform="translate(-0.006)" /><g id="g26" transform="translate(-0.006)" /><g id="g28" transform="translate(-0.006)" /><g id="g30" transform="translate(-0.006)" /><g id="g32" transform="translate(-0.006)" /><g id="g34" transform="translate(-0.006)" /><g id="g36" transform="translate(-0.006)" /></svg>