<svg xmlns:dc="http://purl.org/dc/elements/1.1/" xmlns:cc="http://creativecommons.org/ns#" xmlns:rdf="http://www.w3.org/1999/02/22-rdf-syntax-ns#" xmlns:svg="http://www.w3.org/2000/svg" xmlns="http://www.w3.org/2000/svg" xmlns:sodipodi="http://sodipodi.sourceforge.net/DTD/sodipodi-0.dtd" xmlns:inkscape="http://www.inkscape.org/namespaces/inkscape" viewBox="0 0 511.99609 512" id="svg4" sodipodi:docname="github.svg" width="511.99609" height="512" inkscape:version="0.92.4 (fd57863, 2020-04-02)"><defs id="defs8" /><sodipodi:namedview pagecolor="#ffffff" bordercolor="#666666" borderopacity="1" objecttolerance="10" gridtolerance="10" guidetolerance="10" inkscape:pageopacity="0" inkscape:pageshadow="2" inkscape:window-width="1920" inkscape:window-height="1016" id="namedview6" showgrid="false" inkscape:zoom=".4609375" inkscape:cx="-781.01695" inkscape:cy="247.32203" inkscape:window-x="0" inkscape:window-y="27" inkscape:window-maximized="1" inkscape:current-layer="svg4" /><path d="M256 0C115.39063.0.0 115.39063.0 256 0 375.98828 84.195312 484.98437 196 512v-84.69531c-11.07813 2.42578-21.27344 2.49609-32.55078-.82813-15.12891-4.46484-27.42188-14.54297-36.54688-29.91015-5.8164-9.8125-16.125-20.45313-26.8789-19.67188l-2.636721-29.88281c23.253911-1.99219 43.371091 14.16797 55.312501 34.23047 5.30469 8.92187 11.41015 14.15234 19.24609 16.46484 7.57422 2.23047 15.70703 1.16016 25.1836-2.1875 2.3789-18.97266 11.07031-26.07422 17.63671-36.07422v-.0156C148.08594 349.4844 121.51172 314.1094 110.96484 286.18752 96.988281 249.1133 104.48828 202.7969 129.20312 173.52736c.48047-.57031 1.34766-2.0625 1.01172-3.10546-11.33203-34.23047 2.47657-62.54688 2.98438-65.55079 13.07812 3.86719 15.20312-3.89062 56.80859 21.38672l7.19141 4.32032c3.00781 1.79296 2.0625.76953 5.07031.54296 17.37109-4.71875 35.68359-7.32421 53.72656-7.55859 18.17969.23438 36.375 2.83984 54.46485 7.75l2.32812.23438c-.20312-.0312.63281-.14844 2.03516-.98438 51.97265-31.480469 50.10547-21.19141 64.04297-25.72266.5039 3.00782 14.1289 31.78516 2.91797 65.58204-1.51172 4.65625 45.05859 47.30078 19.24609 115.7539-10.54688 27.93359-37.11719 63.30859-103.79688 73.25391v.0156c8.54688 13.02735 18.81641 19.95703 18.76172 46.83203V512c111.8086-27.01562 196-136.01172 196-256C512 115.39063 396.60937.0 256 0zm0 0" id="path2" style="fill:#6c757d;fill-opacity:1" inkscape:connector-curvature="0" /></svg>