<?xml version="1.0" encoding="UTF-8"?>
<svg xmlns="http://www.w3.org/2000/svg" xmlns:xlink="http://www.w3.org/1999/xlink" width="150pt" height="150pt" viewBox="0 0 150 150" version="1.1">
<defs>
<clipPath id="clip1">
  <path d="M 79 57 L 111 57 L 111 100 L 79 100 Z M 79 57 "/>
</clipPath>
<clipPath id="clip2">
  <path d="M 150.070312 75.484375 C 149.824219 116.921875 116.03125 150.316406 74.589844 150.070312 C 33.148438 149.824219 -0.246094 116.03125 0 74.589844 C 0.25 33.148438 34.042969 -0.246094 75.484375 0 C 116.921875 0.25 150.316406 34.042969 150.070312 75.484375 Z M 150.070312 75.484375 "/>
</clipPath>
<clipPath id="clip3">
  <path d="M 33 55 L 108 55 L 108 113 L 33 113 Z M 33 55 "/>
</clipPath>
<clipPath id="clip4">
  <path d="M 150.070312 75.484375 C 149.824219 116.921875 116.03125 150.316406 74.589844 150.070312 C 33.148438 149.824219 -0.246094 116.03125 0 74.589844 C 0.25 33.148438 34.042969 -0.246094 75.484375 0 C 116.921875 0.25 150.316406 34.042969 150.070312 75.484375 Z M 150.070312 75.484375 "/>
</clipPath>
<clipPath id="clip5">
  <path d="M 62 51 L 106 51 L 106 71 L 62 71 Z M 62 51 "/>
</clipPath>
<clipPath id="clip6">
  <path d="M 150.070312 75.484375 C 149.824219 116.921875 116.03125 150.316406 74.589844 150.070312 C 33.148438 149.824219 -0.246094 116.03125 0 74.589844 C 0.25 33.148438 34.042969 -0.246094 75.484375 0 C 116.921875 0.25 150.316406 34.042969 150.070312 75.484375 Z M 150.070312 75.484375 "/>
</clipPath>
<clipPath id="clip7">
  <path d="M 45 81 L 59 81 L 59 96 L 45 96 Z M 45 81 "/>
</clipPath>
<clipPath id="clip8">
  <path d="M 150.070312 75.484375 C 149.824219 116.921875 116.03125 150.316406 74.589844 150.070312 C 33.148438 149.824219 -0.246094 116.03125 0 74.589844 C 0.25 33.148438 34.042969 -0.246094 75.484375 0 C 116.921875 0.25 150.316406 34.042969 150.070312 75.484375 Z M 150.070312 75.484375 "/>
</clipPath>
<clipPath id="clip9">
  <path d="M 50 83 L 58 83 L 58 91 L 50 91 Z M 50 83 "/>
</clipPath>
<clipPath id="clip10">
  <path d="M 150.070312 75.484375 C 149.824219 116.921875 116.03125 150.316406 74.589844 150.070312 C 33.148438 149.824219 -0.246094 116.03125 0 74.589844 C 0.25 33.148438 34.042969 -0.246094 75.484375 0 C 116.921875 0.25 150.316406 34.042969 150.070312 75.484375 Z M 150.070312 75.484375 "/>
</clipPath>
<clipPath id="clip11">
  <path d="M 50 85 L 68 85 L 68 102 L 50 102 Z M 50 85 "/>
</clipPath>
<clipPath id="clip12">
  <path d="M 150.070312 75.484375 C 149.824219 116.921875 116.03125 150.316406 74.589844 150.070312 C 33.148438 149.824219 -0.246094 116.03125 0 74.589844 C 0.25 33.148438 34.042969 -0.246094 75.484375 0 C 116.921875 0.25 150.316406 34.042969 150.070312 75.484375 Z M 150.070312 75.484375 "/>
</clipPath>
<clipPath id="clip13">
  <path d="M 52 86 L 66 86 L 66 101 L 52 101 Z M 52 86 "/>
</clipPath>
<clipPath id="clip14">
  <path d="M 150.070312 75.484375 C 149.824219 116.921875 116.03125 150.316406 74.589844 150.070312 C 33.148438 149.824219 -0.246094 116.03125 0 74.589844 C 0.25 33.148438 34.042969 -0.246094 75.484375 0 C 116.921875 0.25 150.316406 34.042969 150.070312 75.484375 Z M 150.070312 75.484375 "/>
</clipPath>
<clipPath id="clip15">
  <path d="M 58 91 L 74 91 L 74 108 L 58 108 Z M 58 91 "/>
</clipPath>
<clipPath id="clip16">
  <path d="M 150.070312 75.484375 C 149.824219 116.921875 116.03125 150.316406 74.589844 150.070312 C 33.148438 149.824219 -0.246094 116.03125 0 74.589844 C 0.25 33.148438 34.042969 -0.246094 75.484375 0 C 116.921875 0.25 150.316406 34.042969 150.070312 75.484375 Z M 150.070312 75.484375 "/>
</clipPath>
<clipPath id="clip17">
  <path d="M 59 93 L 73 93 L 73 106 L 59 106 Z M 59 93 "/>
</clipPath>
<clipPath id="clip18">
  <path d="M 150.070312 75.484375 C 149.824219 116.921875 116.03125 150.316406 74.589844 150.070312 C 33.148438 149.824219 -0.246094 116.03125 0 74.589844 C 0.25 33.148438 34.042969 -0.246094 75.484375 0 C 116.921875 0.25 150.316406 34.042969 150.070312 75.484375 Z M 150.070312 75.484375 "/>
</clipPath>
<clipPath id="clip19">
  <path d="M 66 98 L 80 98 L 80 112 L 66 112 Z M 66 98 "/>
</clipPath>
<clipPath id="clip20">
  <path d="M 150.070312 75.484375 C 149.824219 116.921875 116.03125 150.316406 74.589844 150.070312 C 33.148438 149.824219 -0.246094 116.03125 0 74.589844 C 0.25 33.148438 34.042969 -0.246094 75.484375 0 C 116.921875 0.25 150.316406 34.042969 150.070312 75.484375 Z M 150.070312 75.484375 "/>
</clipPath>
<clipPath id="clip21">
  <path d="M 67 99 L 79 99 L 79 111 L 67 111 Z M 67 99 "/>
</clipPath>
<clipPath id="clip22">
  <path d="M 150.070312 75.484375 C 149.824219 116.921875 116.03125 150.316406 74.589844 150.070312 C 33.148438 149.824219 -0.246094 116.03125 0 74.589844 C 0.25 33.148438 34.042969 -0.246094 75.484375 0 C 116.921875 0.25 150.316406 34.042969 150.070312 75.484375 Z M 150.070312 75.484375 "/>
</clipPath>
<clipPath id="clip23">
  <path d="M 61 60 L 75 60 L 75 74 L 61 74 Z M 61 60 "/>
</clipPath>
<clipPath id="clip24">
  <path d="M 150.070312 75.484375 C 149.824219 116.921875 116.03125 150.316406 74.589844 150.070312 C 33.148438 149.824219 -0.246094 116.03125 0 74.589844 C 0.25 33.148438 34.042969 -0.246094 75.484375 0 C 116.921875 0.25 150.316406 34.042969 150.070312 75.484375 Z M 150.070312 75.484375 "/>
</clipPath>
<clipPath id="clip25">
  <path d="M 79 55 L 100 55 L 100 76 L 79 76 Z M 79 55 "/>
</clipPath>
<clipPath id="clip26">
  <path d="M 150.070312 75.484375 C 149.824219 116.921875 116.03125 150.316406 74.589844 150.070312 C 33.148438 149.824219 -0.246094 116.03125 0 74.589844 C 0.25 33.148438 34.042969 -0.246094 75.484375 0 C 116.921875 0.25 150.316406 34.042969 150.070312 75.484375 Z M 150.070312 75.484375 "/>
</clipPath>
<clipPath id="clip27">
  <path d="M 104 54 L 119 54 L 119 92 L 104 92 Z M 104 54 "/>
</clipPath>
<clipPath id="clip28">
  <path d="M 150.070312 75.484375 C 149.824219 116.921875 116.03125 150.316406 74.589844 150.070312 C 33.148438 149.824219 -0.246094 116.03125 0 74.589844 C 0.25 33.148438 34.042969 -0.246094 75.484375 0 C 116.921875 0.25 150.316406 34.042969 150.070312 75.484375 Z M 150.070312 75.484375 "/>
</clipPath>
<clipPath id="clip29">
  <path d="M 109 41 L 150 41 L 150 92 L 109 92 Z M 109 41 "/>
</clipPath>
<clipPath id="clip30">
  <path d="M 150.070312 75.484375 C 149.824219 116.921875 116.03125 150.316406 74.589844 150.070312 C 33.148438 149.824219 -0.246094 116.03125 0 74.589844 C 0.25 33.148438 34.042969 -0.246094 75.484375 0 C 116.921875 0.25 150.316406 34.042969 150.070312 75.484375 Z M 150.070312 75.484375 "/>
</clipPath>
<clipPath id="clip31">
  <path d="M 31 54 L 46 54 L 46 91 L 31 91 Z M 31 54 "/>
</clipPath>
<clipPath id="clip32">
  <path d="M 150.070312 75.484375 C 149.824219 116.921875 116.03125 150.316406 74.589844 150.070312 C 33.148438 149.824219 -0.246094 116.03125 0 74.589844 C 0.25 33.148438 34.042969 -0.246094 75.484375 0 C 116.921875 0.25 150.316406 34.042969 150.070312 75.484375 Z M 150.070312 75.484375 "/>
</clipPath>
<clipPath id="clip33">
  <path d="M 0 39 L 41 39 L 41 91 L 0 91 Z M 0 39 "/>
</clipPath>
<clipPath id="clip34">
  <path d="M 150.070312 75.484375 C 149.824219 116.921875 116.03125 150.316406 74.589844 150.070312 C 33.148438 149.824219 -0.246094 116.03125 0 74.589844 C 0.25 33.148438 34.042969 -0.246094 75.484375 0 C 116.921875 0.25 150.316406 34.042969 150.070312 75.484375 Z M 150.070312 75.484375 "/>
</clipPath>
<clipPath id="clip35">
  <path d="M 57 87 L 65 87 L 65 95 L 57 95 Z M 57 87 "/>
</clipPath>
<clipPath id="clip36">
  <path d="M 150.070312 75.484375 C 149.824219 116.921875 116.03125 150.316406 74.589844 150.070312 C 33.148438 149.824219 -0.246094 116.03125 0 74.589844 C 0.25 33.148438 34.042969 -0.246094 75.484375 0 C 116.921875 0.25 150.316406 34.042969 150.070312 75.484375 Z M 150.070312 75.484375 "/>
</clipPath>
<clipPath id="clip37">
  <path d="M 65 93 L 72 93 L 72 101 L 65 101 Z M 65 93 "/>
</clipPath>
<clipPath id="clip38">
  <path d="M 150.070312 75.484375 C 149.824219 116.921875 116.03125 150.316406 74.589844 150.070312 C 33.148438 149.824219 -0.246094 116.03125 0 74.589844 C 0.25 33.148438 34.042969 -0.246094 75.484375 0 C 116.921875 0.25 150.316406 34.042969 150.070312 75.484375 Z M 150.070312 75.484375 "/>
</clipPath>
<clipPath id="clip39">
  <path d="M 71 99 L 78 99 L 78 106 L 71 106 Z M 71 99 "/>
</clipPath>
<clipPath id="clip40">
  <path d="M 150.070312 75.484375 C 149.824219 116.921875 116.03125 150.316406 74.589844 150.070312 C 33.148438 149.824219 -0.246094 116.03125 0 74.589844 C 0.25 33.148438 34.042969 -0.246094 75.484375 0 C 116.921875 0.25 150.316406 34.042969 150.070312 75.484375 Z M 150.070312 75.484375 "/>
</clipPath>
<clipPath id="clip41">
  <path d="M 61 64 L 67 64 L 67 73 L 61 73 Z M 61 64 "/>
</clipPath>
<clipPath id="clip42">
  <path d="M 150.070312 75.484375 C 149.824219 116.921875 116.03125 150.316406 74.589844 150.070312 C 33.148438 149.824219 -0.246094 116.03125 0 74.589844 C 0.25 33.148438 34.042969 -0.246094 75.484375 0 C 116.921875 0.25 150.316406 34.042969 150.070312 75.484375 Z M 150.070312 75.484375 "/>
</clipPath>
</defs>
<g id="surface1">
<path style=" stroke:none;fill-rule:nonzero;fill:rgb(23.137255%,74.509804%,76.470588%);fill-opacity:1;" d="M 150.070312 75.484375 C 149.824219 116.921875 116.03125 150.316406 74.589844 150.070312 C 33.148438 149.824219 -0.246094 116.03125 0 74.589844 C 0.25 33.148438 34.042969 -0.246094 75.484375 0 C 116.921875 0.25 150.316406 34.042969 150.070312 75.484375 "/>
<g clip-path="url(#clip1)" clip-rule="nonzero">
<g clip-path="url(#clip2)" clip-rule="nonzero">
<path style=" stroke:none;fill-rule:nonzero;fill:rgb(97.647059%,69.019608%,47.058824%);fill-opacity:1;" d="M 110.066406 87.148438 L 86.402344 99.074219 L 79.390625 59.207031 L 105.445312 57.414062 L 110.066406 87.148438 "/>
</g>
</g>
<g clip-path="url(#clip3)" clip-rule="nonzero">
<g clip-path="url(#clip4)" clip-rule="nonzero">
<path style=" stroke:none;fill-rule:nonzero;fill:rgb(98.431373%,80.784314%,67.45098%);fill-opacity:1;" d="M 42.0625 56.820312 C 42.0625 56.820312 54.390625 58.730469 59.046875 58.21875 C 63.703125 57.703125 74.867188 55.390625 76.484375 55.941406 C 78.105469 56.492188 107.085938 88.5 107.773438 90.4375 C 108.625 92.824219 104.488281 96.910156 101.324219 95.664062 C 101.324219 95.664062 103.292969 97.933594 101.824219 99.410156 C 100.773438 100.46875 96.753906 105.308594 93.308594 102.527344 C 93.308594 102.527344 95.40625 104.992188 89.648438 108.1875 C 86.316406 110.035156 84.0625 108.410156 84.0625 108.410156 C 84.0625 108.410156 80.539062 113.707031 77.285156 112.441406 C 75.402344 111.710938 33.363281 81.984375 33.363281 81.984375 L 41.738281 57.359375 "/>
</g>
</g>
<g clip-path="url(#clip5)" clip-rule="nonzero">
<g clip-path="url(#clip6)" clip-rule="nonzero">
<path style=" stroke:none;fill-rule:nonzero;fill:rgb(97.647059%,69.019608%,47.058824%);fill-opacity:1;" d="M 105.445312 57.808594 L 82.976562 62.132812 C 82.976562 62.132812 78.476562 65.246094 73.96875 67.765625 C 71.242188 69.292969 68.511719 70.589844 66.765625 70.851562 C 64.90625 71.132812 63.53125 70.585938 62.554688 69.835938 L 67.476562 60.664062 C 71.839844 56.695312 76.9375 52.273438 78.566406 51.660156 C 81.605469 50.527344 95.132812 56.378906 95.132812 56.378906 L 105.445312 57.808594 "/>
</g>
</g>
<g clip-path="url(#clip7)" clip-rule="nonzero">
<g clip-path="url(#clip8)" clip-rule="nonzero">
<path style=" stroke:none;fill-rule:nonzero;fill:rgb(97.647059%,69.019608%,47.058824%);fill-opacity:1;" d="M 51.878906 94.664062 C 50.511719 96.015625 48.085938 95.785156 46.46875 94.144531 C 44.847656 92.503906 44.644531 90.082031 46.011719 88.726562 L 52.171875 82.640625 C 53.542969 81.289062 55.964844 81.519531 57.585938 83.160156 C 59.203125 84.800781 59.40625 87.226562 58.039062 88.578125 L 51.878906 94.664062 "/>
</g>
</g>
<g clip-path="url(#clip9)" clip-rule="nonzero">
<g clip-path="url(#clip10)" clip-rule="nonzero">
<path style=" stroke:none;fill-rule:nonzero;fill:rgb(98.039216%,72.54902%,52.941176%);fill-opacity:1;" d="M 57.128906 87.65625 L 54.066406 90.441406 C 52.796875 90.433594 50.746094 88.164062 50.542969 86.921875 C 50.503906 86.683594 50.652344 85.96875 50.652344 85.96875 L 53.082031 83.566406 C 53.507812 83.144531 54.050781 83.058594 54.433594 83.058594 C 55.214844 83.0625 56.027344 83.433594 56.660156 84.074219 C 57.757812 85.183594 57.96875 86.820312 57.128906 87.65625 "/>
</g>
</g>
<g clip-path="url(#clip11)" clip-rule="nonzero">
<g clip-path="url(#clip12)" clip-rule="nonzero">
<path style=" stroke:none;fill-rule:nonzero;fill:rgb(97.647059%,69.019608%,47.058824%);fill-opacity:1;" d="M 58.730469 100.53125 C 57.117188 102.125 54.261719 101.851562 52.351562 99.917969 C 50.441406 97.988281 50.203125 95.128906 51.816406 93.53125 L 59.074219 86.355469 C 60.691406 84.761719 63.546875 85.039062 65.457031 86.96875 C 67.367188 88.902344 67.605469 91.761719 65.992188 93.355469 L 58.730469 100.53125 "/>
</g>
</g>
<g clip-path="url(#clip13)" clip-rule="nonzero">
<g clip-path="url(#clip14)" clip-rule="nonzero">
<path style=" stroke:none;fill-rule:nonzero;fill:rgb(97.647059%,69.019608%,47.058824%);fill-opacity:1;" d="M 56.066406 100.269531 C 55.082031 100.265625 54.0625 99.804688 53.273438 99.007812 C 51.871094 97.585938 51.625 95.542969 52.726562 94.457031 L 59.988281 87.28125 C 60.546875 86.730469 61.25 86.617188 61.742188 86.617188 C 62.726562 86.625 63.746094 87.085938 64.53125 87.882812 C 65.9375 89.300781 66.179688 91.34375 65.078125 92.433594 L 57.820312 99.609375 C 57.257812 100.160156 56.558594 100.273438 56.066406 100.269531 "/>
</g>
</g>
<g clip-path="url(#clip15)" clip-rule="nonzero">
<g clip-path="url(#clip16)" clip-rule="nonzero">
<path style=" stroke:none;fill-rule:nonzero;fill:rgb(97.647059%,69.019608%,47.058824%);fill-opacity:1;" d="M 65.910156 106.160156 C 64.386719 107.667969 61.6875 107.40625 59.886719 105.582031 C 58.082031 103.757812 57.855469 101.058594 59.378906 99.550781 L 66.234375 92.777344 C 67.757812 91.273438 70.457031 91.53125 72.257812 93.355469 C 74.0625 95.179688 74.289062 97.878906 72.765625 99.386719 L 65.910156 106.160156 "/>
</g>
</g>
<g clip-path="url(#clip17)" clip-rule="nonzero">
<g clip-path="url(#clip18)" clip-rule="nonzero">
<path style=" stroke:none;fill-rule:nonzero;fill:rgb(97.647059%,69.019608%,47.058824%);fill-opacity:1;" d="M 63.394531 105.839844 C 62.480469 105.835938 61.539062 105.410156 60.808594 104.667969 C 59.511719 103.355469 59.28125 101.476562 60.292969 100.476562 L 67.148438 93.703125 C 67.65625 93.199219 68.300781 93.09375 68.75 93.097656 C 69.664062 93.101562 70.605469 93.53125 71.335938 94.269531 C 72.632812 95.582031 72.863281 97.460938 71.851562 98.460938 L 64.996094 105.238281 C 64.488281 105.742188 63.84375 105.84375 63.394531 105.839844 "/>
</g>
</g>
<g clip-path="url(#clip19)" clip-rule="nonzero">
<g clip-path="url(#clip20)" clip-rule="nonzero">
<path style=" stroke:none;fill-rule:nonzero;fill:rgb(97.647059%,69.019608%,47.058824%);fill-opacity:1;" d="M 72.691406 110.773438 C 71.34375 112.105469 68.960938 111.875 67.367188 110.261719 C 65.773438 108.648438 65.570312 106.261719 66.917969 104.933594 L 72.976562 98.945312 C 74.324219 97.613281 76.710938 97.84375 78.300781 99.453125 C 79.898438 101.070312 80.097656 103.453125 78.75 104.785156 L 72.691406 110.773438 "/>
</g>
</g>
<g clip-path="url(#clip21)" clip-rule="nonzero">
<g clip-path="url(#clip22)" clip-rule="nonzero">
<path style=" stroke:none;fill-rule:nonzero;fill:rgb(97.647059%,69.019608%,47.058824%);fill-opacity:1;" d="M 70.46875 110.339844 C 69.703125 110.335938 68.90625 109.972656 68.289062 109.347656 C 67.734375 108.785156 67.394531 108.085938 67.332031 107.382812 C 67.28125 106.765625 67.457031 106.226562 67.832031 105.855469 L 73.890625 99.867188 C 74.304688 99.457031 74.832031 99.375 75.203125 99.378906 C 75.96875 99.382812 76.761719 99.742188 77.378906 100.367188 C 78.449219 101.449219 78.660156 103.050781 77.835938 103.863281 L 71.777344 109.851562 C 71.363281 110.257812 70.835938 110.34375 70.46875 110.339844 "/>
</g>
</g>
<g clip-path="url(#clip23)" clip-rule="nonzero">
<g clip-path="url(#clip24)" clip-rule="nonzero">
<path style=" stroke:none;fill-rule:nonzero;fill:rgb(97.647059%,69.019608%,47.058824%);fill-opacity:1;" d="M 74.585938 66.753906 L 73.96875 67.765625 L 71.796875 70.964844 C 66.351562 76.9375 61.292969 72.191406 61.292969 72.191406 L 62.554688 69.835938 L 67.476562 60.664062 L 74.585938 66.753906 "/>
</g>
</g>
<g clip-path="url(#clip25)" clip-rule="nonzero">
<g clip-path="url(#clip26)" clip-rule="nonzero">
<path style=" stroke:none;fill-rule:nonzero;fill:rgb(97.647059%,69.019608%,47.058824%);fill-opacity:1;" d="M 79.371094 62.054688 C 79.371094 62.054688 79.429688 62.152344 79.535156 62.332031 C 80.65625 64.15625 87.339844 74.433594 96.539062 75.144531 C 106.632812 75.925781 85.972656 55.917969 85.972656 55.917969 "/>
</g>
</g>
<g clip-path="url(#clip27)" clip-rule="nonzero">
<g clip-path="url(#clip28)" clip-rule="nonzero">
<path style=" stroke:none;fill-rule:nonzero;fill:rgb(100%,100%,100%);fill-opacity:1;" d="M 118.109375 90.164062 L 108.355469 91.25 L 104.429688 55.96875 L 114.179688 54.886719 L 118.109375 90.164062 "/>
</g>
</g>
<g clip-path="url(#clip29)" clip-rule="nonzero">
<g clip-path="url(#clip30)" clip-rule="nonzero">
<path style=" stroke:none;fill-rule:nonzero;fill:rgb(36.078431%,36.078431%,35.294118%);fill-opacity:1;" d="M 202.105469 81.496094 L 114.179688 91.285156 L 109.675781 50.816406 L 197.601562 41.027344 L 202.105469 81.496094 "/>
</g>
</g>
<g clip-path="url(#clip31)" clip-rule="nonzero">
<g clip-path="url(#clip32)" clip-rule="nonzero">
<path style=" stroke:none;fill-rule:nonzero;fill:rgb(100%,100%,100%);fill-opacity:1;" d="M 31.480469 89.648438 L 41.21875 90.851562 L 45.566406 55.621094 L 35.824219 54.417969 L 31.480469 89.648438 "/>
</g>
</g>
<g clip-path="url(#clip33)" clip-rule="nonzero">
<g clip-path="url(#clip34)" clip-rule="nonzero">
<path style=" stroke:none;fill-rule:nonzero;fill:rgb(36.078431%,36.078431%,35.294118%);fill-opacity:1;" d="M -52.410156 79.980469 L 35.390625 90.816406 L 40.378906 50.40625 L -47.425781 39.570312 L -52.410156 79.980469 "/>
</g>
</g>
<g clip-path="url(#clip35)" clip-rule="nonzero">
<g clip-path="url(#clip36)" clip-rule="nonzero">
<path style=" stroke:none;fill-rule:nonzero;fill:rgb(98.039216%,72.54902%,52.941176%);fill-opacity:1;" d="M 64.21875 92.027344 L 61.160156 94.8125 C 59.886719 94.804688 57.839844 92.539062 57.636719 91.292969 C 57.597656 91.054688 57.746094 90.339844 57.746094 90.339844 L 60.175781 87.9375 C 60.601562 87.515625 61.144531 87.429688 61.523438 87.429688 C 62.308594 87.433594 63.121094 87.804688 63.75 88.445312 C 64.847656 89.554688 65.0625 91.191406 64.21875 92.027344 "/>
</g>
</g>
<g clip-path="url(#clip37)" clip-rule="nonzero">
<g clip-path="url(#clip38)" clip-rule="nonzero">
<path style=" stroke:none;fill-rule:nonzero;fill:rgb(98.039216%,72.54902%,52.941176%);fill-opacity:1;" d="M 71.519531 97.855469 L 68.785156 100.347656 C 67.652344 100.339844 65.820312 98.3125 65.640625 97.203125 C 65.605469 96.992188 65.738281 96.351562 65.738281 96.351562 L 67.90625 94.207031 C 68.289062 93.828125 68.773438 93.75 69.113281 93.753906 C 69.8125 93.757812 70.539062 94.085938 71.101562 94.65625 C 72.082031 95.648438 72.269531 97.113281 71.519531 97.855469 "/>
</g>
</g>
<g clip-path="url(#clip39)" clip-rule="nonzero">
<g clip-path="url(#clip40)" clip-rule="nonzero">
<path style=" stroke:none;fill-rule:nonzero;fill:rgb(98.039216%,72.54902%,52.941176%);fill-opacity:1;" d="M 77.375 103.613281 L 74.851562 105.910156 C 73.804688 105.902344 72.113281 104.035156 71.949219 103.007812 C 71.917969 102.8125 72.039062 102.222656 72.039062 102.222656 L 74.042969 100.242188 C 74.394531 99.894531 74.839844 99.820312 75.152344 99.824219 C 75.800781 99.828125 76.46875 100.132812 76.988281 100.660156 C 77.894531 101.574219 78.070312 102.925781 77.375 103.613281 "/>
</g>
</g>
<g clip-path="url(#clip41)" clip-rule="nonzero">
<g clip-path="url(#clip42)" clip-rule="nonzero">
<path style=" stroke:none;fill-rule:nonzero;fill:rgb(98.039216%,72.54902%,52.941176%);fill-opacity:1;" d="M 61.292969 72.191406 C 61.292969 72.191406 63.402344 72.136719 64.300781 70.917969 C 65.203125 69.703125 67.03125 66.765625 66.957031 66.085938 C 66.878906 65.410156 65.277344 64.761719 65.277344 64.761719 L 61.292969 72.191406 "/>
</g>
</g>
</g>
</svg>
