<svg id="Capa_1" xmlns="http://www.w3.org/2000/svg" xmlns:xlink="http://www.w3.org/1999/xlink" viewBox="0 0 512 512" style="enable-background:new 0 0 512 512"><path style="fill:#f2f2f2" d="M512 256c0 82.317-38.86 155.564-99.234 202.397C369.455 492.001 315.068 512 256 512c-58.535.0-112.473-19.644-155.596-52.705C39.361 412.515.0 338.85.0 256 0 114.615 114.615.0 256 0S512 114.615 512 256z"/><path style="fill:#e64c18" d="M441.992 119.474l-29.226 338.923C369.455 492.001 315.068 512 256 512c-58.535.0-112.473-19.644-155.596-52.705L71.105 119.474H441.992z"/><path style="fill:#f36518" d="M256.546 151.249V504.167L378.46 469.75 405.655 151.249z"/><path style="fill:#fff" d="M140.903 195.528 152.858 337.091H311.761L306.562 395.568 256.549 409.112 204.46 394.52 203.152 358.061H154.631L160.705 429.941 256.549 457.028 352.392 429.941 364.27 289.295H196.928L192.775 243.456 192.774 243.454 368.226 242.535 372.194 195.528z"/><path d="M151.159 16.796V41.117H127.921V16.796H106.303V86.513H127.921V63.815H151.159V86.513H172.777V16.796z"/><path d="M249.521 16.796H183.045V41.117H204.663V87.055H227.903V41.117H249.521z"/><path d="M373.284 64.895V17.337H350.044V64.895 87.055H373.284 406.79V64.895z"/><path d="M314.914 17.337 298.702 42.197 282.488 17.337H259.249V87.055H282.488V52.465L298.702 77.327 314.914 52.465v34.59H338.154V17.337z"/><g/><g/><g/><g/><g/><g/><g/><g/><g/><g/><g/><g/><g/><g/><g/></svg>