<svg id="Capa_1" xmlns="http://www.w3.org/2000/svg" xmlns:xlink="http://www.w3.org/1999/xlink" viewBox="0 0 512 512" style="enable-background:new 0 0 512 512"><path style="fill:#f2f2f2" d="M512 256c0 141.385-114.615 256-256 256C125.555 512 17.899 414.438 2.027 288.298.69 277.723.0 266.94.0 256c0-20.041 2.299-39.549 6.656-58.264C33.029 84.428 134.656.0 256 0c121.041.0 222.469 84.01 249.135 196.901 3.5 14.764 5.705 30.02 6.51 45.641C511.885 247.003 512 251.486 512 256z"/><path style="fill:#3b8739" d="M243.195 276.559V210L185.553 176.721 127.912 210V276.559L185.553 309.838z"/><path style="fill:#333" d="M470.204 266.459l37.564 21.692-37.564 21.692-57.637-33.28v-66.56l57.637-33.28 34.931 20.177c3.5 14.764 5.705 30.02 6.51 45.641l-21.358 12.33v-23.186l-20.083-11.588-20.083 11.588v23.186L470.204 266.459z"/><path style="fill:#66a060" d="M481.392 249.74V236.82L470.203 230.36 459.013 236.82V249.74L470.203 256.201z"/><path style="fill:#333" d="M100.686 210.004v87.771l-38.442-21.932v-44.993L43.05 219.763l-19.195 11.086v44.993L2.027 288.298C.69 277.723.0 266.94.0 256c0-20.041 2.299-39.549 6.656-58.264l36.394-21.013L100.686 210.004z"/><path transform="matrix(0.5 0.866 -0.866 0.5 303.4564 -39.0495)" style="fill:#6da75d" d="M127.906 210.001h115.281v66.557H127.906z"/><path style="fill:#55a344" d="M127.912 276.559 147.704 244.283 127.912 210z"/><path style="fill:#639d57" d="M223.979 243.277 243.195 210 185.553 176.721z"/><path style="fill:#333" d="M346.551 99.579v88.304l-19.32-11.16-57.647 33.28v66.56l57.647 33.28 57.637-33.28V120.09L346.551 99.579zM346.446 254.37l-19.216 11.097-19.216-11.097v-22.183l19.216-11.097 19.216 11.097V254.37z"/><g><path style="fill:#66a060" d="M282.149 358.717c0 0-1.132-9.729-11.539-9.729-10.408.0-17.534 1.357-17.534 7.127s20.25 5.77 27.943 8.032c7.693 2.262 14.48 8.145 11.086 18.553-3.394 10.408-13.802 11.539-29.866 11.539s-19.685-13.35-19.685-18.553h9.05c0 0-1.132 8.145 9.502 9.502 10.634 1.357 20.802 2.121 22.173-6.108 1.81-10.861-34.391-5.43-37.559-16.064-2.676-8.985-1.132-20.815 16.969-22.626 18.101-1.811 28.056 6.181 28.056 18.101L282.149 358.717z"/><path style="fill:#66a060" d="M194.723 401.131l20.008 11.551c10.053 5.804 22.619-1.451 22.619-13.059v-20.242-37.253h-8.155v55.227c0 6.339-6.862 10.302-12.353 7.131l-13.965-8.062v-58.94l51.043-29.467 51.043 29.467v58.94l-51.043 29.467-14.704-8.489-9.602 3.872 24.305 14.033 59.198-34.179v-68.351L253.92 298.6l-59.198 34.179v68.352H194.723z"/></g><g/><g/><g/><g/><g/><g/><g/><g/><g/><g/><g/><g/><g/><g/><g/></svg>