<svg xmlns:dc="http://purl.org/dc/elements/1.1/" xmlns:cc="http://creativecommons.org/ns#" xmlns:rdf="http://www.w3.org/1999/02/22-rdf-syntax-ns#" xmlns:svg="http://www.w3.org/2000/svg" xmlns="http://www.w3.org/2000/svg" xmlns:sodipodi="http://sodipodi.sourceforge.net/DTD/sodipodi-0.dtd" xmlns:inkscape="http://www.inkscape.org/namespaces/inkscape" inkscape:version="1.0 (6e3e5246a0, 2020-05-07)" height="384.96475" width="264.80194" sodipodi:docname="upload.svg" viewBox="0 0 264.80194 384.96476" id="Capa_1"><defs id="defs50" /><sodipodi:namedview inkscape:current-layer="Capa_1" inkscape:window-maximized="1" inkscape:window-y="27" inkscape:window-x="0" inkscape:cy="192.48225" inkscape:cx="132.401" inkscape:zoom="1.0543273" showgrid="false" id="namedview48" inkscape:window-height="1016" inkscape:window-width="1920" inkscape:pageshadow="2" inkscape:pageopacity="0" guidetolerance="10" gridtolerance="10" objecttolerance="10" borderopacity="1" bordercolor="#666666" pagecolor="#ffffff" /><g transform="translate(-60.081499,-2.4857384e-4)" style="opacity:1;fill:#f46c2a;fill-opacity:1" id="g15"><path style="fill:#f46c2a;fill-opacity:1" d="m183.919 3.544v0 0L63.724 123.487c-7.94 7.627-1.949 21.029 8.83 20.728h59.863c0 .048-.024.096-.024.144v228.576c0 6.617 5.414 12.03 12.03 12.03h96.242c6.617.0 12.03-5.414 12.03-12.03V144.359c0-.048-.024-.096-.024-.144h59.815c10.731.289 16.554-13.017 8.926-20.632L201.122 3.556c-4.764-4.739-12.464-4.739-17.203-.012zm99.61 116.55h-54.906v.205 12.03 11.886h.024c0 .048-.024.096-.024.144v12.03 204.515h-72.182V156.389v-12.03c0-.048-.024-.096-.024-.144h.024v-11.886-12.03-.205h-54.954l91.021-90.829z" id="Arrow_Up" /><g style="fill:#f46c2a;fill-opacity:1" id="g3"/><g style="fill:#f46c2a;fill-opacity:1" id="g5"/><g style="fill:#f46c2a;fill-opacity:1" id="g7"/><g style="fill:#f46c2a;fill-opacity:1" id="g9"/><g style="fill:#f46c2a;fill-opacity:1" id="g11"/><g style="fill:#f46c2a;fill-opacity:1" id="g13"/></g><g transform="translate(-60.081499,-2.4857384e-4)" id="g17"/><g transform="translate(-60.081499,-2.4857384e-4)" id="g19"/><g transform="translate(-60.081499,-2.4857384e-4)" id="g21"/><g transform="translate(-60.081499,-2.4857384e-4)" id="g23"/><g transform="translate(-60.081499,-2.4857384e-4)" id="g25"/><g transform="translate(-60.081499,-2.4857384e-4)" id="g27"/><g transform="translate(-60.081499,-2.4857384e-4)" id="g29"/><g transform="translate(-60.081499,-2.4857384e-4)" id="g31"/><g transform="translate(-60.081499,-2.4857384e-4)" id="g33"/><g transform="translate(-60.081499,-2.4857384e-4)" id="g35"/><g transform="translate(-60.081499,-2.4857384e-4)" id="g37"/><g transform="translate(-60.081499,-2.4857384e-4)" id="g39"/><g transform="translate(-60.081499,-2.4857384e-4)" id="g41"/><g transform="translate(-60.081499,-2.4857384e-4)" id="g43"/><g transform="translate(-60.081499,-2.4857384e-4)" id="g45"/></svg>